<?xml version="1.0" encoding="UTF-8"?>
<svg version="1.1" xmlns="http://www.w3.org/2000/svg" width="1024" height="1024">
<path d="M0 0 C337.92 0 675.84 0 1024 0 C1024 337.92 1024 675.84 1024 1024 C686.08 1024 348.16 1024 0 1024 C0 686.08 0 348.16 0 0 Z " fill="#EDC85E" transform="translate(0,0)"/>
<path d="M0 0 C11.08968848 4.62070353 18.48063465 14.21016832 25.78125 23.3359375 C28.9492858 27.13981148 32.41549777 30.59130442 36 34 C34.54958473 36.90083054 32.7106171 36.97494308 29.6875 38 C26.32391153 39.14963771 23.14065639 40.32896192 20 42 C19.95745644 43.99954746 19.95919217 46.00041636 20 48 C21.22498737 49.44611988 21.22498737 49.44611988 24.8984375 49.234375 C30.42689413 49.16894948 35.34541616 47.78173675 40.625 46.25 C48.78213324 44.00326433 56.90990537 42.11942925 65.25 40.6875 C66.16475098 40.52862305 67.07950195 40.36974609 68.02197266 40.20605469 C93.87538118 35.92147961 119.2831415 38.17990015 145 42 C146.12229004 42.16016602 147.24458008 42.32033203 148.40087891 42.48535156 C164.38244703 44.79611705 178.71498552 48.26652453 192.5703125 56.8984375 C195.56798774 58.25751212 197.74084258 58.26714405 201 58 C204.30194849 56.58487922 205.72668304 55.44151202 207.625 52.375 C212.60287574 44.35066431 221.94856829 39.15017301 229.9921875 34.67578125 C231.93871468 33.59128754 233.86315264 32.46572563 235.7578125 31.29296875 C246.19301843 24.85453389 260.18994798 16.27550428 272.90625 17.4921875 C277.25944047 18.54799862 279.03457712 20.42304826 281.33203125 24.17578125 C286.2318307 33.25523672 287.31443781 42.61400834 288.4375 52.75 C289.40604682 61.13949007 290.43589429 69.51370931 291.625 77.875 C291.7480249 78.75381836 291.8710498 79.63263672 291.99780273 80.53808594 C292.11454346 81.34793945 292.23128418 82.15779297 292.3515625 82.9921875 C292.45291504 83.69714355 292.55426758 84.40209961 292.65869141 85.12841797 C292.99428683 87.21769158 292.99428683 87.21769158 294 90 C294.05887771 91.63047316 294.06111541 93.26334494 294.02734375 94.89453125 C294.01509766 95.85037109 294.00285156 96.80621094 293.99023438 97.79101562 C293.95528133 99.79369573 293.9162667 101.79630937 293.87304688 103.79882812 C293.78551208 111.09418144 293.78551208 111.09418144 296 118 C297.93618425 118.67156616 297.93618425 118.67156616 300 119 C302.73533309 122.03845708 303.99387618 125.24818825 305.375 129.0625 C306.96368344 133.33238491 308.63266961 137.49813194 310.5625 141.625 C312.66792069 146.15924456 314.44559899 150.74244066 316.09375 155.4609375 C316.63639789 156.98128719 317.20997567 158.49188745 317.84375 159.9765625 C320.28624029 165.71641469 320.95681207 171.57626352 321.70996094 177.73583984 C322.04025585 180.31425314 322.41355081 182.88482054 322.7890625 185.45703125 C327.61510053 219.11007874 322.54878626 254.67682061 303.2734375 283.58984375 C294.14128426 295.57822364 282.72591195 305.69800455 270.72021484 314.703125 C268.99414113 316.00441702 267.28607142 317.32626743 265.58203125 318.65625 C260.65288745 322.4962386 255.70899563 326.22767894 250.5 329.6875 C246.17679643 332.68698652 243.53054164 335.36067365 241 340 C240.57890716 343.29493194 240.57890716 343.29493194 241 346 C258.76564106 347.16496007 275.98302835 334.83169362 288.875 323.5625 C290.92996324 321.72250904 292.96369098 319.86076514 295 318 C296.02867187 317.17757813 297.05734375 316.35515625 298.1171875 315.5078125 C301.02296332 312.98002378 303.01735049 310.43565285 305.25 307.3125 C310.10813671 301.32830512 310.10813671 301.32830512 314.5 300.3125 C316.32808238 300.13907383 318.16427587 300.04559315 320 300 C321.30582031 299.92394531 322.61164063 299.84789062 323.95703125 299.76953125 C339.36825268 299.11973432 352.75232505 303.14099711 364.3125 313.6875 C373.54238948 323.51286622 376.49840426 337.93421959 376.10546875 351.05078125 C376.05326172 352.01564453 376.05326172 352.01564453 376 353 C376.66 353 377.32 353 378 353 C378.2475 353.78375 378.495 354.5675 378.75 355.375 C379.78261652 358.00731099 379.78261652 358.00731099 381.625 359.375 C384.38560234 360.1014743 386.60908391 359.86417388 389.40625 359.41015625 C391.41911676 359.09185654 393.44292223 358.8423835 395.46875 358.62109375 C414.57639199 356.46565853 427.60049361 348.78354941 440.875 335.0625 C443 333 443 333 444.92578125 332.10546875 C447.35537156 330.81060235 448.58231296 329.38073154 450.3125 327.25 C452.4627915 324.60508939 454.66510816 322.43064384 457.30859375 320.30078125 C461.5626697 316.72060154 464.58534006 312.47599466 467.75 307.9375 C468.31332031 307.14794922 468.87664063 306.35839844 469.45703125 305.54492188 C472.12699015 301.77983799 474.70778547 298.01137542 477 294 C482.53503443 303.88399006 481.50001564 314.02905924 479.75 324.8125 C479.58624878 325.88830322 479.58624878 325.88830322 479.41918945 326.98583984 C478.79461284 330.50230857 478.16668601 332.75049959 476.15234375 335.765625 C473.01661703 340.47775154 471.54482514 345.57801754 469.8125 350.9375 C469.45736328 351.99646484 469.10222656 353.05542969 468.73632812 354.14648438 C466.98882486 359.46194498 465.66559394 364.45338385 465 370 C463.5625 372.9375 463.5625 372.9375 462 375 C461.34 375 460.68 375 460 375 C459.60941406 376.05380859 459.60941406 376.05380859 459.2109375 377.12890625 C453.21657597 391.34134408 443.71953135 403.28182122 431 412 C430.34 412 429.68 412 429 412 C428.814375 412.928125 428.62875 413.85625 428.4375 414.8125 C427 418 427 418 424.0625 419.4375 C423.45148437 419.64890625 422.84046875 419.8603125 422.2109375 420.078125 C418.29064576 421.71273428 414.87951534 424.2264746 411.35546875 426.57421875 C409 428 409 428 407 428 C404.94578646 433.39231054 403.24195033 438.15218827 404 444 C404.88644706 445.80578015 404.88644706 445.80578015 406 447.5625 C408.60266253 452.03582623 408.53098078 454.92917495 407.2578125 459.89453125 C404.08920047 468.05643878 399.87957176 472.69501533 393 478 C392.31550781 478.56460937 391.63101562 479.12921875 390.92578125 479.7109375 C386.64915646 483.12876746 382.14598653 485.59215705 377.19921875 487.921875 C374.80007667 489.03808176 374.80007667 489.03808176 372 491 C366.33178006 492.74957691 361.25677595 493.15302416 355.421875 492.3046875 C347.82410671 491.34883923 340.72652081 491.05182474 334 495 C332.03015861 497.95476209 331.65107622 499.24308144 331.125 502.625 C328.82710626 514.56368102 322.32367164 524.36297891 312.4375 531.5625 C311.77621094 531.99691406 311.11492187 532.43132813 310.43359375 532.87890625 C309.96050781 533.24886719 309.48742187 533.61882813 309 534 C309 534.66 309 535.32 309 536 C307.6254817 536.31461197 306.25035581 536.62656973 304.875 536.9375 C304.10929687 537.11152344 303.34359375 537.28554688 302.5546875 537.46484375 C285.18326496 541.10381147 271.00017268 539.52588732 254 535 C252.64682011 534.66139637 251.29275372 534.32629911 249.9375 533.99609375 C247.2864192 533.34895492 244.6413696 532.68541869 242 532 C242 531.34 242 530.68 242 530 C241.41992188 529.731875 240.83984375 529.46375 240.2421875 529.1875 C237.96609281 527.98204219 236.1300698 526.61049783 234.125 525 C230.88118793 522.50943268 228.01482676 521.00370669 224 520 C224 519.01 224 518.02 224 517 C217.17216359 515.73233184 212.5141943 515.38650304 206.65625 519.3828125 C204.6224616 521.36863419 203.44532042 523.55689493 202 526 C196.75998425 532.14491806 191.28591412 536.57692779 184 540 C183.07574219 540.45375 182.15148437 540.9075 181.19921875 541.375 C165.2375134 548.97786912 149.28604667 545.84023015 132.78222656 541.40917969 C129.44208535 540.52876664 126.18562713 539.8621952 122.7578125 539.4921875 C119.60066194 539.07867298 117.80264711 538.73609314 115.125 537.1875 C111.35809655 535.13349949 107.51708999 533.60299698 103.4921875 532.125 C97.75396242 529.53470404 93.08401825 525.53013024 88.375 521.4375 C87.76962402 520.91518799 87.16424805 520.39287598 86.54052734 519.85473633 C81.49757937 515.48185343 76.57194573 510.98860743 71.671875 506.45703125 C69.43163215 504.39692488 67.17091127 502.3724428 64.875 500.375 C64.25109375 499.8284375 63.6271875 499.281875 62.984375 498.71875 C61.5487272 497.47527553 60.09891028 496.24809732 58.640625 495.03125 C46.7777184 484.86304434 39.43283398 472.76877255 32.16845703 459.171875 C30.43051305 455.94146345 28.62976708 452.74878694 26.8125 449.5625 C26.24144531 448.55316406 25.67039062 447.54382813 25.08203125 446.50390625 C23.91420504 444.48459707 22.69154377 442.53109162 21.40893555 440.58129883 C16.96821179 433.82510257 13.42194316 426.96659203 10.1875 419.5625 C9.71119141 418.52029297 9.23488281 417.47808594 8.74414062 416.40429688 C5.63046858 409.34050923 3.89567141 402.6650616 3 395 C1.68 394.67 0.36 394.34 -1 394 C-1.22429687 394.76699219 -1.44859375 395.53398438 -1.6796875 396.32421875 C-3.34123707 399.69156034 -4.75504227 400.2589401 -8.125 401.8125 C-15.1215276 405.37486811 -19.8258727 410.19209398 -24.625 416.3125 C-28.15399047 420.30583132 -31.21639616 421.70813755 -36.4375 422.5625 C-40.55178318 421.91287634 -42.37613666 420.68327415 -45.51953125 418.09375 C-49.54437398 412.40162413 -49.35774629 405.01929347 -49.3125 398.3125 C-49.30404053 396.99475586 -49.30404053 396.99475586 -49.29541016 395.65039062 C-49.00972899 380.2292645 -44.39584675 367.21713319 -33.9296875 355.7421875 C-30.60323277 352.73895105 -30.60323277 352.73895105 -28 352 C-25.37109375 352.94140625 -25.37109375 352.94140625 -22.4375 354.5625 C-11.88967973 360.30154468 -0.97043178 364.6283961 10.375 368.5 C11.07598816 368.73989655 11.77697632 368.97979309 12.49920654 369.22695923 C38.6746902 379.43541287 38.6746902 379.43541287 65.37890625 377.46875 C66.24386719 376.9840625 67.10882813 376.499375 68 376 C68.45742526 372.0124539 68.45742526 372.0124539 66.0546875 369.9375 C62.22044257 367.50554925 58.45841999 366.27532416 54.125 365 C53.27349365 364.73928711 52.4219873 364.47857422 51.54467773 364.20996094 C46.74590571 362.75723318 41.92946092 361.45677861 37.0625 360.25 C13.01042254 353.95745649 -11.84205067 344.81094658 -32 330 C-33.47188923 328.95985125 -34.94461816 327.92089022 -36.41796875 326.8828125 C-47.03717659 319.31973885 -56.803945 311.24232446 -66 302 C-67.29164063 300.70835937 -67.29164063 300.70835937 -68.609375 299.390625 C-85.66294686 281.39616642 -95.86456202 257.14201632 -100 233 C-100.185625 232.08734375 -100.37125 231.1746875 -100.5625 230.234375 C-102.55164079 215.52894129 -101.20953386 200.41262376 -98 186 C-97.80132324 185.08637695 -97.60264648 184.17275391 -97.39794922 183.23144531 C-90.60813605 152.583195 -77.8828377 116.81729498 -54 95 C-52.92105469 94.37996094 -51.84210938 93.75992188 -50.73046875 93.12109375 C-49.82941406 92.42113281 -48.92835938 91.72117187 -48 91 C-47.57464932 88.13857245 -47.57464932 88.13857245 -48.125 84.875 C-49.74234834 59.94061594 -32.52502592 24.75949898 -16.60546875 5.70703125 C-11.66004617 0.44875956 -7.06073736 -1.4690889 0 0 Z " fill="#FCFDFC" transform="translate(323,235)"/>
<path d="M0 0 C16.59957141 9.86034422 30.99281715 25.30172573 41.625 41.25 C45.97099912 40.76711121 50.22047082 40.15876064 54.50390625 39.27734375 C80.37970878 34.17526828 108.55446384 34.37568599 134.625 38.25 C135.71482178 38.41072998 135.71482178 38.41072998 136.82666016 38.57470703 C141.78790365 39.33364141 146.7061698 40.25561209 151.625 41.25 C152.37410645 41.39695312 153.12321289 41.54390625 153.89501953 41.6953125 C167.06111153 44.30256881 179.41047808 47.55375947 190.625 55.25 C190.93050781 54.78851563 191.23601562 54.32703125 191.55078125 53.8515625 C202.87095185 37.71633342 219.89186982 28.9030923 237.1875 20.5625 C237.96657715 20.18182373 238.7456543 19.80114746 239.54833984 19.40893555 C251.02247878 13.95313033 262.67838129 10.67193361 275.14453125 14.97265625 C285.43687312 20.2728071 290.01245716 29.76042377 293.625 40.25 C293.94082031 41.10851562 294.25664063 41.96703125 294.58203125 42.8515625 C298.56684137 55.2182146 298.82736788 69.35207465 298.625 82.25 C299.285 82.25 299.945 82.25 300.625 82.25 C302.34869543 88.04188083 302.7456941 93.33458153 302.57421875 99.35546875 C302.54704269 100.45364426 302.54704269 100.45364426 302.51931763 101.57400513 C302.43749222 104.63904324 302.34588428 107.70235204 302.20678711 110.76538086 C301.46134525 119.50968819 301.46134525 119.50968819 304.12866211 127.47924805 C305.89077815 128.92726467 307.67887798 130.0704894 309.625 131.25 C311.04296875 133.55859375 311.04296875 133.55859375 311.8125 135.6875 C312.93108918 138.53395246 314.06744096 141.17848124 315.625 143.8125 C319.61180401 150.6648194 322.19642817 156.71554438 323.9140625 164.515625 C324.4971518 167.17440391 324.4971518 167.17440391 325.60253906 169.1340332 C326.69025134 171.38503662 327.2054704 173.39188924 327.6953125 175.83984375 C327.95634766 177.14018555 327.95634766 177.14018555 328.22265625 178.46679688 C328.39667969 179.36462891 328.57070313 180.26246094 328.75 181.1875 C328.93175781 182.08146484 329.11351562 182.97542969 329.30078125 183.89648438 C330.12668194 188.07877097 330.8380995 191.96633107 330.625 196.25 C330.295 196.58 329.965 196.91 329.625 197.25 C330.07225892 199.13286621 330.56066401 201.00593972 331.0625 202.875 C338.02059671 234.15451733 328.71270222 270.58466538 313.625 298.25 C314.88054687 298.22679687 316.13609375 298.20359375 317.4296875 298.1796875 C334.8856322 297.94768584 350.21421574 299.82449785 363.625 312.25 C368.625 317.39084507 368.625 317.39084507 368.625 320.25 C369.2025 320.29125 369.78 320.3325 370.375 320.375 C373.89650219 321.74447307 374.84405612 323.98493622 376.625 327.25 C377.47501236 329.90987012 378.05766962 332.50790315 378.625 335.25 C379.285 335.25 379.945 335.25 380.625 335.25 C382.91112778 342.40775723 384.06532071 348.73193151 383.625 356.25 C407.07857759 350.06992473 423.2488297 335.32484509 438.625 317.25 C439.42164063 316.3425 440.21828125 315.435 441.0390625 314.5 C446.30646399 308.38917773 450.45291684 302.57265592 454.25 295.453125 C454.70375 294.72609375 455.1575 293.9990625 455.625 293.25 C456.285 293.25 456.945 293.25 457.625 293.25 C457.91375 292.610625 458.2025 291.97125 458.5 291.3125 C459.625 289.25 459.625 289.25 461.625 288.25 C460.965 289.9 460.305 291.55 459.625 293.25 C460.615 292.92 461.605 292.59 462.625 292.25 C462.955 290.6 463.285 288.95 463.625 287.25 C463.955 287.91 464.285 288.57 464.625 289.25 C466.275 288.59 467.925 287.93 469.625 287.25 C469.625 286.59 469.625 285.93 469.625 285.25 C470.945 285.25 472.265 285.25 473.625 285.25 C473.625 285.91 473.625 286.57 473.625 287.25 C474.285 287.25 474.945 287.25 475.625 287.25 C475.625 287.91 475.625 288.57 475.625 289.25 C476.73875 289.2190625 476.73875 289.2190625 477.875 289.1875 C481.1268251 290.44388697 481.39913192 291.08102208 482.875 294.125 C488.458271 308.63698372 485.28895961 327.13274989 483.625 342.25 C484.285 341.92 484.945 341.59 485.625 341.25 C485.32178678 347.52337695 485.01675411 353.35261545 482.515625 359.1640625 C481.00260297 362.70771936 479.83791526 366.38337592 478.58984375 370.02734375 C477.625 372.25 477.625 372.25 475.625 373.25 C474.89806096 375.22888961 474.22683749 377.22954558 473.625 379.25 C472.965 379.25 472.305 379.25 471.625 379.25 C471.50125 380.343125 471.3775 381.43625 471.25 382.5625 C470.625 386.25 470.625 386.25 468.625 389.25 C467.23415299 393.17178995 467.23415299 393.17178995 466.625 397.25 C466.625 401.1978088 465.28775435 402.43508826 462.625 405.25 C461.635 405.25 460.645 405.25 459.625 405.25 C458.965 407.23 458.305 409.21 457.625 411.25 C458.285 411.58 458.945 411.91 459.625 412.25 C458.19689248 414.40264005 456.75831172 416.54680203 455.3125 418.6875 C454.90837891 419.29916016 454.50425781 419.91082031 454.08789062 420.54101562 C450.96484375 425.13671875 450.96484375 425.13671875 447.625 426.25 C447.13 426.930625 446.635 427.61125 446.125 428.3125 C445.63 428.951875 445.135 429.59125 444.625 430.25 C443.635 430.25 442.645 430.25 441.625 430.25 C441.4703125 431.1471875 441.4703125 431.1471875 441.3125 432.0625 C440.50178951 434.64203337 439.78244833 435.63191375 437.625 437.25 C434.9375 437.9375 434.9375 437.9375 432.625 438.25 C432.625 438.91 432.625 439.57 432.625 440.25 C432.0371875 440.35699219 431.449375 440.46398437 430.84375 440.57421875 C428.33502864 441.33831874 427.06638032 442.31966994 425.125 444.0625 C424.52300781 444.59746094 423.92101562 445.13242187 423.30078125 445.68359375 C421.93533496 446.95992 420.61639994 448.28585952 419.3125 449.625 C417.625 451.25 417.625 451.25 415.625 451.25 C415.955 452.24 416.285 453.23 416.625 454.25 C416.69437062 456.47818441 416.70957084 458.70834524 416.6875 460.9375 C416.67847656 462.11699219 416.66945313 463.29648437 416.66015625 464.51171875 C416.64275391 465.86716797 416.64275391 465.86716797 416.625 467.25 C415.965 467.25 415.305 467.25 414.625 467.25 C414.91375 468.508125 415.2025 469.76625 415.5 471.0625 C416.22637126 477.57938022 413.04487656 481.93958494 409.625 487.25 C409.14417969 488.04792969 408.66335938 488.84585937 408.16796875 489.66796875 C403.87526508 496.53865974 398.38588275 502.71131975 391.625 507.25 C388.375 507.9375 388.375 507.9375 385.625 508.25 C386.285 508.25 386.945 508.25 387.625 508.25 C387.625 508.91 387.625 509.57 387.625 510.25 C385.32421875 512.01171875 385.32421875 512.01171875 382.3125 513.9375 C381.32636719 514.58074219 380.34023438 515.22398437 379.32421875 515.88671875 C378.43347656 516.33660156 377.54273438 516.78648437 376.625 517.25 C375.635 516.92 374.645 516.59 373.625 516.25 C371.93743867 517.21432076 370.2752694 518.2231657 368.625 519.25 C359.25701215 523.47052505 349.79138466 523.69832306 339.625 523.25 C338.965 522.92 338.305 522.59 337.625 522.25 C337.52832031 523.25933594 337.43164062 524.26867187 337.33203125 525.30859375 C336.74531819 529.39297979 335.21081515 532.64188206 333.3125 536.3125 C332.71824219 537.47910156 332.12398437 538.64570312 331.51171875 539.84765625 C326.89892532 548.16596489 321.47530733 553.89797705 313.8125 559.375 C313.23435547 559.80425781 312.65621094 560.23351562 312.06054688 560.67578125 C301.6772463 568.13340045 289.99085325 569.41386411 277.5 569.5 C276.66500977 569.50926514 275.83001953 569.51853027 274.96972656 569.52807617 C270.0421038 569.50331181 265.62329079 568.93056719 260.84545898 567.74462891 C258.59084842 567.2423924 256.40399095 566.97364783 254.10546875 566.7578125 C239.72213792 565.31729682 225.08269689 559.87657188 213.4375 551.3125 C210.8030811 548.95431817 210.8030811 548.95431817 207.625 549.25 C207.295 549.91 206.965 550.57 206.625 551.25 C205.635 551.58 204.645 551.91 203.625 552.25 C203.17125 553.03375 202.7175 553.8175 202.25 554.625 C200.37755122 557.64972495 198.70068947 558.55837079 195.625 560.25 C195.16480469 560.72308594 194.70460938 561.19617188 194.23046875 561.68359375 C191.21920653 564.62158925 187.32145716 566.30291965 183.625 568.25 C182.90183594 568.63800781 182.17867187 569.02601563 181.43359375 569.42578125 C177.8503114 571.2956155 174.69087831 572.74176521 170.625 573.25 C173.16956151 570.28134491 176.11494665 568.8880249 179.625 567.25 C178.43003906 567.77400391 178.43003906 567.77400391 177.2109375 568.30859375 C176.15132813 568.76363281 175.09171875 569.21867188 174 569.6875 C172.95585937 570.13996094 171.91171875 570.59242188 170.8359375 571.05859375 C167.73814749 572.20801705 164.89289946 572.82311223 161.625 573.25 C161.955 573.91 162.285 574.57 162.625 575.25 C159.81596379 576.6545181 157.44385492 576.38209254 154.3125 576.375 C153.18199219 576.37757813 152.05148437 576.38015625 150.88671875 576.3828125 C148.00346404 576.26541051 145.4259145 575.91212988 142.625 575.25 C143.945 574.92 145.265 574.59 146.625 574.25 C146.625 573.59 146.625 572.93 146.625 572.25 C143.985 572.25 141.345 572.25 138.625 572.25 C138.625 572.91 138.625 573.57 138.625 574.25 C132.47744834 574.585321 127.24379081 573.93029846 121.625 571.25 C121.295 570.59 120.965 569.93 120.625 569.25 C118.64611039 568.52306096 116.64545442 567.85183749 114.625 567.25 C114.295 567.91 113.965 568.57 113.625 569.25 C113.00625 568.96125 112.3875 568.6725 111.75 568.375 C109.10064405 567.42123186 107.05782616 567.01388263 104.3125 566.625 C99.26109307 565.67691311 94.99814174 563.72177016 90.4375 561.4375 C89.44012817 560.94032471 89.44012817 560.94032471 88.42260742 560.43310547 C77.49056602 554.78716979 77.49056602 554.78716979 74.0625 550.125 C72.69668407 548.03471429 72.69668407 548.03471429 70.03125 547.09375 C65.54023378 544.66283297 62.31735639 541.42902606 58.6875 537.875 C53.13538994 532.52982343 47.50793008 527.35344275 41.625 522.375 C28.17886918 510.85472009 18.37171167 497.53081569 10.80664062 481.57250977 C8.53935877 476.86158939 5.94337748 472.48172774 3.14526367 468.06738281 C-4.41775579 456.09814331 -9.98061765 443.29896631 -12.375 429.25 C-12.90867187 429.95125 -13.44234375 430.6525 -13.9921875 431.375 C-27.69713679 448.8262849 -27.69713679 448.8262849 -38.375 450.25 C-46.55602901 450.85745365 -53.54159688 451.17497522 -60.375 446.25 C-60.98859375 445.8375 -61.6021875 445.425 -62.234375 445 C-68.95460557 439.94546761 -72.60263506 432.08649083 -74.08984375 423.9140625 C-75.1750898 413.77518841 -74.8689978 405.01766453 -71.44140625 395.33203125 C-70.39194206 392.29896442 -69.67886614 389.32166644 -69 386.1875 C-66.19115142 374.86246157 -60.99580017 366.98408929 -52.375 359.25 C-51.3683557 358.25668874 -50.36552196 357.25938905 -49.375 356.25 C-55.86707656 350.2030067 -62.41129223 344.18413441 -70.7734375 340.92578125 C-74.70257125 339.09758344 -77.41036294 336.82611173 -80.375 333.75 C-80.89553955 333.21955078 -81.4160791 332.68910156 -81.95239258 332.14257812 C-85.81153658 328.09766134 -88.83461191 323.83413934 -91.67578125 319.01171875 C-93.51719423 316.01889351 -95.58232284 313.32712784 -97.75 310.5625 C-102.66668766 304.12458077 -106.52441604 297.22796173 -110.35766602 290.10620117 C-111.35437011 288.28764077 -112.39896631 286.50445739 -113.453125 284.71875 C-125.57016303 262.84897405 -129.43655495 233.51834829 -124.375 209.25 C-123.715 209.25 -123.055 209.25 -122.375 209.25 C-122.34559326 208.56139893 -122.31618652 207.87279785 -122.28588867 207.16333008 C-121.75580233 198.47751741 -119.91981098 190.31253247 -117.6875 181.9375 C-117.50693054 181.2513562 -117.32636108 180.5652124 -117.14031982 179.85827637 C-111.45254812 158.32146821 -102.48722105 138.34817065 -89.375 120.25 C-88.80265625 119.45464844 -88.2303125 118.65929687 -87.640625 117.83984375 C-81.98921922 110.28303281 -76.07200339 103.21792981 -67.375 99.25 C-67.33761719 98.04085937 -67.30023438 96.83171875 -67.26171875 95.5859375 C-67.19594774 93.93226628 -67.12950455 92.2786217 -67.0625 90.625 C-67.03994141 89.83609375 -67.01738281 89.0471875 -66.99414062 88.234375 C-66.43055047 75.32303689 -62.69314543 63.33808796 -58.1875 51.3125 C-57.94445129 50.65702179 -57.70140259 50.00154358 -57.45098877 49.32620239 C-53.80640075 39.52956291 -49.95418006 30.1300097 -44.375 21.25 C-44.01696289 20.67523926 -43.65892578 20.10047852 -43.29003906 19.50830078 C-33.47489982 3.94283494 -19.20637246 -9.5564554 0 0 Z M-28.98657227 22.96679688 C-41.74330437 41.60271856 -57.54535422 72.47913259 -55.875 95.5625 C-55.74604002 99.4033044 -55.67713357 102.35163298 -58.12890625 105.5078125 C-60.4375 107.1875 -60.4375 107.1875 -62.72265625 108.46484375 C-69.71201732 113.16902344 -74.08258665 120.53644604 -78.25 127.6875 C-78.76393311 128.56075928 -79.27786621 129.43401855 -79.80737305 130.33374023 C-81.34442839 132.96442825 -82.86330958 135.60466812 -84.375 138.25 C-84.8066748 139.00055664 -85.23834961 139.75111328 -85.68310547 140.52441406 C-96.05545709 158.72691498 -101.87390872 177.85643002 -106.375 198.25 C-106.55579102 199.05824219 -106.73658203 199.86648438 -106.92285156 200.69921875 C-110.82031833 218.70659999 -110.90864202 237.37136332 -106.375 255.25 C-106.20871094 255.93223633 -106.04242188 256.61447266 -105.87109375 257.31738281 C-103.11745292 268.42883349 -98.85175636 278.22777951 -93.375 288.25 C-92.81941406 289.30960938 -92.26382813 290.36921875 -91.69140625 291.4609375 C-66.81049393 336.92677728 -13.20808596 360.340034 33.93408203 374.22460938 C37.69704355 375.29821767 41.46042875 376.36374161 45.24414062 377.36206055 C49.48707545 378.50510015 52.95922796 379.72767979 56.625 382.25 C57.615 382.91 58.605 383.57 59.625 384.25 C59.625 385.57 59.625 386.89 59.625 388.25 C47.93741919 394.75273413 34.85839604 390.688825 22.6796875 387.35546875 C14.36185594 384.94336978 6.17466026 382.16653962 -2 379.3125 C-2.71216675 379.06600708 -3.4243335 378.81951416 -4.15808105 378.56555176 C-12.90352918 375.51946386 -21.18978115 372.05598926 -29.39990234 367.76342773 C-32.02120288 366.42997606 -34.62657604 365.28981509 -37.375 364.25 C-49.1031331 373.58038144 -55.48973947 385.2935998 -57.375 400.25 C-57.55959446 403.52192779 -57.60542338 406.78586399 -57.625 410.0625 C-57.645625 410.91392578 -57.66625 411.76535156 -57.6875 412.64257812 C-57.72639246 419.02580367 -57.1110787 425.68115615 -53.09960938 430.91357422 C-50.50639688 433.37369137 -48.44396807 434.23871432 -44.9375 434.8125 C-37.45936503 433.63174185 -33.2644695 429.42519784 -28.625 423.875 C-24.12439124 418.70109443 -19.95141179 415.33785201 -13.5546875 412.59375 C-10.78183195 410.88431934 -10.28392777 409.31380146 -9.375 406.25 C-8.055 406.58 -6.735 406.91 -5.375 407.25 C-5.28790771 407.97558105 -5.20081543 408.70116211 -5.11108398 409.44873047 C-3.9968807 417.38114516 -1.74866078 424.10522877 1.5625 431.375 C2.05194092 432.46683594 2.54138184 433.55867188 3.0456543 434.68359375 C6.71400261 442.68170914 10.91785607 450.10603338 15.6640625 457.5 C19.96723153 464.25582851 23.7153865 471.34467499 27.50317383 478.3984375 C31.27123449 485.27698555 35.54272515 491.28350177 40.625 497.25 C41.24463623 497.99338623 41.86427246 498.73677246 42.50268555 499.50268555 C46.49411177 504.26296437 50.88705421 508.25072608 55.625 512.25 C58.02661407 514.30582241 60.42027715 516.37076197 62.8125 518.4375 C63.45920654 518.99477783 64.10591309 519.55205566 64.7722168 520.1262207 C68.52271536 523.373802 72.19441046 526.6851095 75.80493164 530.08740234 C83.2592928 537.10812413 90.42444581 543.72117172 100.484375 546.5703125 C102.67906141 547.26716548 104.49174955 548.1940841 106.5 549.3125 C110.4014029 551.33969954 114.10851025 552.0155566 118.4296875 552.68359375 C122.26352226 553.36318549 125.98528292 554.3280431 129.75 555.3125 C135.37035503 556.75087233 140.81516164 558.01307397 146.625 558.25 C147.57890625 558.28996094 148.5328125 558.32992187 149.515625 558.37109375 C163.94460043 558.67925026 176.42367013 554.25342452 187.25 544.5625 C188.72664261 543.14381435 190.1865049 541.70735178 191.625 540.25 C192.34816406 539.55390625 193.07132813 538.8578125 193.81640625 538.140625 C195.75790518 536.29137522 195.75790518 536.29137522 196.9375 533.6875 C199.22844938 530.37835089 201.76299308 529.02667667 205.625 528.25 C209.01264742 528.30432088 212.28567985 528.69232682 215.625 529.25 C215.625 530.24 215.625 531.23 215.625 532.25 C216.50671875 532.49492188 217.3884375 532.73984375 218.296875 532.9921875 C221.84057398 534.33147279 224.01071432 535.92366348 226.875 538.375 C229.86187594 541.29674981 229.86187594 541.29674981 233.625 542.25 C233.625 542.91 233.625 543.57 233.625 544.25 C237.37293368 545.21653409 241.12369214 546.17165344 244.875 547.125 C246.44121094 547.52912109 246.44121094 547.52912109 248.0390625 547.94140625 C257.81883156 550.41653299 267.43039483 552.80801678 277.5625 552 C278.56047607 551.9215686 278.56047607 551.9215686 279.57861328 551.84155273 C290.98914589 551.63206454 290.98914589 551.63206454 300.625 547.25 C305.625 542.25 305.625 542.25 308 539.9375 C316.90043235 530.82515259 321.24237768 523.46151102 323.71875 510.8515625 C324.80337233 507.73794841 325.77917077 506.8482012 328.625 505.25 C334.87896146 503.00631074 342.68600156 503.86629551 349.125 504.9375 C356.76177954 505.92693676 364.25299012 503.30114775 370.625 499.25 C372.01930916 498.51792302 373.41512814 497.78871389 374.8125 497.0625 C380.25026478 494.05765836 384.905219 490.26471706 389.625 486.25 C390.553125 485.5075 391.48125 484.765 392.4375 484 C396.86660014 478.4319884 400.22456513 471.49274682 399.625 464.25 C398.99458667 460.8347511 397.73004787 458.99571461 395.625 456.25 C394.99002055 450.85267468 395.80307409 444.97889291 398.625 440.25 C400.890625 439.2109375 400.890625 439.2109375 403.625 438.25 C406.46739298 436.50424658 409.22923115 434.65965994 412.00390625 432.80859375 C414.625 431.25 414.625 431.25 416.90625 430.71875 C417.4734375 430.5640625 418.040625 430.409375 418.625 430.25 C418.934375 429.280625 419.24375 428.31125 419.5625 427.3125 C419.913125 426.301875 420.26375 425.29125 420.625 424.25 C422.27491582 423.54289322 423.9457762 422.88437344 425.625 422.25 C427.46032312 420.57333799 429.14322221 418.78969531 430.8515625 416.984375 C432.625 415.25 432.625 415.25 435.9375 413.125 C439.09096276 410.92490971 439.33969456 409.78458995 440.625 406.25 C441.57311635 404.91489738 442.55614724 403.6042731 443.5625 402.3125 C447.175098 397.63633908 449.51882239 392.75846453 451.625 387.25 C452.285 387.25 452.945 387.25 453.625 387.25 C455.86560628 383.15845809 456.86991675 379.81351243 457.625 375.25 C458.9384715 370.82646955 460.48495265 366.48315836 462 362.125 C462.39960937 360.94550781 462.79921875 359.76601563 463.2109375 358.55078125 C463.79875 356.85115234 463.79875 356.85115234 464.3984375 355.1171875 C464.75341309 354.08706543 465.10838867 353.05694336 465.47412109 351.99560547 C466.58309701 349.34996627 467.90148958 347.51453329 469.625 345.25 C470.31842594 342.53051472 470.87119679 339.9460991 471.3125 337.1875 C471.4377002 336.42743652 471.56290039 335.66737305 471.69189453 334.88427734 C473.29765151 324.58340094 472.86489395 316.22038794 469.625 306.25 C467.50569611 308.26535251 465.81657762 310.28773626 464.20703125 312.7265625 C463.76117676 313.39324951 463.31532227 314.05993652 462.85595703 314.74682617 C462.38786621 315.44912354 461.91977539 316.1514209 461.4375 316.875 C455.87255716 325.09883084 449.75053366 332.32239783 442.625 339.25 C441.965 339.95125 441.305 340.6525 440.625 341.375 C438.625 343.25 438.625 343.25 436.1875 344.6875 C433.81177993 346.1361098 432.10425411 347.6896676 430.17578125 349.671875 C419.1890763 360.85230019 408.16727414 367.54288039 392.625 370.25 C391.55636719 370.46527344 390.48773437 370.68054688 389.38671875 370.90234375 C376.72288136 373.31525424 376.72288136 373.31525424 370.625 369.25 C369.9375 367.125 369.9375 367.125 369.625 365.25 C368.965 365.25 368.305 365.25 367.625 365.25 C367.67140625 364.62996094 367.7178125 364.00992187 367.765625 363.37109375 C368.27013074 350.99268511 364.82374432 337.1971081 357.1015625 327.296875 C348.70817508 318.23359281 336.68453889 312.60002002 324.3671875 311.9375 C320.10130337 311.82100764 315.8848666 312.00982948 311.625 312.25 C310.18060547 312.25193359 310.18060547 312.25193359 308.70703125 312.25390625 C304.17430115 312.59259991 302.18671385 313.67756327 298.96484375 316.9609375 C297.04977306 319.21137399 295.23305713 321.53113869 293.4140625 323.859375 C289.48882638 328.8051175 284.60580744 332.42426903 279.625 336.25 C278.90699219 336.8790625 278.18898438 337.508125 277.44921875 338.15625 C271.74068957 343.10431792 265.45968286 346.86254731 258.9375 350.625 C258.03402832 351.14940674 257.13055664 351.67381348 256.19970703 352.21411133 C249.8281576 355.81447719 244.17939727 358.60551992 236.6875 358.375 C235.91535156 358.35695313 235.14320313 358.33890625 234.34765625 358.3203125 C233.49494141 358.28550781 233.49494141 358.28550781 232.625 358.25 C232.17370742 355.24138282 232.1744024 353.04500929 233.69726562 350.3581543 C237.4166644 345.33236027 241.28470811 341.9601137 246.5 338.5625 C258.97710255 330.09311967 270.63779058 320.58209472 281.625 310.25 C282.86830078 309.12078125 282.86830078 309.12078125 284.13671875 307.96875 C303.69055765 289.52286215 315.20589282 257.75424875 316.625 231.25 C316.92013843 220.87810142 316.39561186 210.83125115 315.08081055 200.5480957 C314.81054957 198.42215744 314.55965629 196.29452529 314.31054688 194.16601562 C313.0941186 184.12670641 311.55889443 174.45693679 306.72265625 165.46484375 C305.34585652 162.68674608 304.27795763 159.83968974 303.1875 156.9375 C301.23569532 151.75470789 299.09139798 146.71859755 296.75390625 141.69921875 C295.76149723 139.54613758 294.83725207 137.38036309 293.9375 135.1875 C292.8118676 132.19877596 292.8118676 132.19877596 290.625 130.25 C289.635 130.25 288.645 130.25 287.625 130.25 C285.26562409 124.71418803 285.51029471 119.81878605 285.6875 113.9375 C285.82434548 104.76280428 284.88844021 96.44253865 283.05273438 87.48828125 C282.24169589 83.24421686 281.66201101 78.96565368 281.0625 74.6875 C280.93568848 73.80078613 280.80887695 72.91407227 280.67822266 72.00048828 C280.10126975 67.90902483 279.56320498 63.82055012 279.1328125 59.7109375 C278.04387288 49.41172997 276.06040312 40.55374597 269.625 32.25 C264.94718304 29.13145536 261.10985981 29.36904342 255.625 30.25 C243.93887042 33.86985638 232.98505711 39.84758153 222.625 46.25 C222.02816406 46.6123877 221.43132812 46.97477539 220.81640625 47.34814453 C207.17523386 55.24882454 207.17523386 55.24882454 197.625 67.25 C193.87842143 70.16400555 191.30914296 70.69370179 186.625 70.25 C183.63798426 68.82710716 180.8847975 67.25789335 178.0703125 65.53320312 C164.67025313 57.80795338 149.25168745 55.97346279 134.1875 54 C132.31298234 53.74341697 130.43863181 53.48560991 128.56445312 53.2265625 C95.05742495 48.63424277 63.19128744 49.77174097 30.50048828 58.95629883 C24.30494203 60.69445472 19.05522807 61.70124407 12.625 61.25 C11.625 56.5 11.625 56.5 11.625 54.25 C14.9671926 52.51400675 18.39500055 51.06239108 21.875 49.625 C22.95265625 49.17898438 24.0303125 48.73296875 25.140625 48.2734375 C25.96046875 47.93570313 26.7803125 47.59796875 27.625 47.25 C23.22533161 42.03986638 18.67789327 36.98410818 14.0703125 31.95703125 C12.01108242 29.67740434 10.03079312 27.35737432 8.0625 25 C3.34119718 19.56267021 -3.15170307 13.27109564 -10.453125 11.84375 C-19.49993247 11.45324033 -23.86368531 15.87682619 -28.98657227 22.96679688 Z " fill="#070604" transform="translate(331.375,222.75)"/>
<path d="M0 0 C49.5 0 99 0 150 0 C150 49.17 150 98.34 150 149 C149.67 149 149.34 149 149 149 C148.94054199 148.41323486 148.88108398 147.82646973 148.81982422 147.22192383 C144.41567553 105.44739748 126.69734618 65.5715191 93.6640625 38.33203125 C65.89245214 16.10170464 35.31014504 4.39692535 0 1 C0 0.67 0 0.34 0 0 Z " fill="#020201" transform="translate(874,0)"/>
<path d="M0 0 C0.33 0 0.66 0 1 0 C1.06993164 0.58789307 1.13986328 1.17578613 1.21191406 1.78149414 C2.67025572 13.80343442 4.27910714 25.43994451 8 37 C8.2263916 37.7115625 8.4527832 38.423125 8.68603516 39.15625 C21.90677856 79.92675376 50.69481355 112.03446414 88.38183594 131.8059082 C105.91672916 140.65442503 124.60948939 145.43708034 144 148 C144 148.33 144 148.66 144 149 C96.48 149 48.96 149 0 149 C0 99.83 0 50.66 0 0 Z " fill="#020201" transform="translate(0,875)"/>
<path d="M0 0 C47.52 0 95.04 0 144 0 C144 0.33 144 0.66 144 1 C142.29070312 1.22042969 142.29070312 1.22042969 140.546875 1.4453125 C97.94133975 7.32115333 59.27919607 28.98387365 32.90039062 63.19677734 C13.78817625 88.65973799 4.95570902 116.75536745 1 148 C0.67 148 0.34 148 0 148 C0 99.16 0 50.32 0 0 Z " fill="#010100" transform="translate(0,0)"/>
<path d="M0 0 C0.33 0 0.66 0 1 0 C1 48.51 1 97.02 1 147 C-47.51 147 -96.02 147 -146 147 C-146 146.67 -146 146.34 -146 146 C-145.32235596 145.91548584 -144.64471191 145.83097168 -143.9465332 145.74389648 C-99.35220622 140.00276696 -59.95918644 120.23026451 -32 84.25 C-30.98523797 82.84386969 -29.98704103 81.42572594 -29 80 C-28.32324219 79.02933594 -27.64648438 78.05867187 -26.94921875 77.05859375 C-11.01158093 53.58699039 -3.64865511 27.85855493 0 0 Z " fill="#020201" transform="translate(1023,877)"/>
<path d="M0 0 C2 2 2 2 2 6 C1.33355469 6.1959375 0.66710937 6.391875 -0.01953125 6.59375 C-13.03048479 10.81548597 -24.57116466 19.41072725 -30.87890625 31.6953125 C-31.24886719 32.45585938 -31.61882812 33.21640625 -32 34 C-32.35964844 34.69867187 -32.71929687 35.39734375 -33.08984375 36.1171875 C-37.67126932 45.55665302 -40.29456916 56.50157616 -39 67 C-37.69493679 70.29700178 -36.51338548 71.57462346 -33.8125 73.8125 C-28.31710281 76.13277881 -23.60757046 75.4387957 -18.125 73.5625 C-10.96178031 70.47205083 -5.87073298 64.87073298 -0.4375 59.4375 C7.83382168 51.16617832 14.369748 45.63927793 26.375 44.75 C30.4969261 45.03427077 34.94057504 45.94057504 38 49 C38.04063832 50.66617115 38.042721 52.33388095 38 54 C37.34 54 36.68 54 36 54 C35.62875 54.94552734 35.62875 54.94552734 35.25 55.91015625 C33.70421532 58.49451502 32.8624695 58.69632486 30 59.4375 C21.6787892 61.93789614 15.59490051 64.38969603 11 72 C7.8371634 75.51016974 4.61138967 78.94931023 1 82 C0.01 82 -0.98 82 -2 82 C-3.59598661 82.90146313 -5.15500793 83.86937726 -6.6875 84.875 C-14.66026149 89.75299549 -22.63841745 91.34723882 -32 90 C-37.41311396 87.98832693 -43.26729456 85.58733161 -47 81 C-47 80.34 -47 79.68 -47 79 C-48.32 79 -49.64 79 -51 79 C-56.78172566 62.04680441 -52.83577545 47.25807777 -47 31 C-46.34 31 -45.68 31 -45 31 C-44.979375 30.175 -44.95875 29.35 -44.9375 28.5 C-43.59145192 23.47475382 -40.50261318 20.72420707 -37 17 C-35.40727531 15.0937752 -33.83070858 13.17577382 -32.26171875 11.25 C-31 10 -31 10 -29 10 C-29 9.34 -29 8.68 -29 8 C-22.01628037 0.51744325 -9.73430636 -1.36343705 0 0 Z " fill="#080808" transform="translate(497,579)"/>
<path d="M0 0 C5.61946017 2.33618007 8.31382711 5.965019 10.8984375 11.3671875 C12.9980413 17.6659989 13.10903859 25.68964407 10.3359375 31.8046875 C7.44563228 36.6769163 3.28359158 40.57213614 -2.1015625 42.3671875 C-7.07016565 42.88884807 -10.95675229 42.9395926 -15.4765625 40.6796875 C-20.91412266 35.88945593 -23.60574171 31.52686299 -24.47265625 24.25390625 C-24.62751286 16.79346116 -24.09820087 11.15399193 -19.1015625 5.3671875 C-13.14641138 -0.08981409 -7.96467671 -2.39828555 0 0 Z " fill="#040504" transform="translate(475.1015625,413.6328125)"/>
<path d="M0 0 C5.69573944 3.88345871 8.44952746 8.13618773 9.75 14.875 C10.5926969 22.31882263 7.90886869 29.41406888 3.375 35.3125 C-1.26240073 39.83948643 -4.84226339 41.0669625 -11.25 41.3125 C-16.3919465 41.15340512 -19.48858362 40.63641638 -23.25 36.875 C-27.85898153 30.84564052 -28.20862639 24.22446896 -27.25 16.875 C-25.25589317 9.89029427 -21.53611248 4.11553123 -15.5 0 C-10.084314 -1.87466054 -5.415686 -1.87466054 0 0 Z " fill="#050505" transform="translate(318.25,403.125)"/>
<path d="M0 0 C0.33 0 0.66 0 1 0 C0.9592334 0.7206665 0.9184668 1.44133301 0.87646484 2.18383789 C0.69712721 5.47619123 0.53591653 8.76919701 0.375 12.0625 C0.31054688 13.19623047 0.24609375 14.32996094 0.1796875 15.49804688 C-0.10017223 21.49753993 -0.15046469 26.36888628 2 32 C2.29519531 32.80566406 2.59039062 33.61132812 2.89453125 34.44140625 C5.826921 41.21709832 9.66997332 45.86738171 15 51 C10.23096421 50.57920272 7.08399117 48.54658984 4 45 C-3.21288782 33.64564637 -5.04988013 19.87023208 -2.32421875 6.74609375 C-1.63504689 4.44994294 -0.89737587 2.22207357 0 0 Z " fill="#433923" transform="translate(260,618)"/>
<path d="M0 0 C0.33 0.99 0.66 1.98 1 3 C0.52949219 3.32613281 0.05898438 3.65226563 -0.42578125 3.98828125 C-1.04839844 4.42527344 -1.67101562 4.86226562 -2.3125 5.3125 C-2.92738281 5.74175781 -3.54226563 6.17101562 -4.17578125 6.61328125 C-6.01425513 7.9386134 -6.01425513 7.9386134 -7.46875 9.515625 C-10.45418799 12.40967203 -14.34708104 14.07585306 -18 16 C-19.08474609 16.58201172 -19.08474609 16.58201172 -20.19140625 17.17578125 C-23.7746886 19.0456155 -26.93412169 20.49176521 -31 21 C-28.75421641 18.46812933 -26.76608158 17.33640689 -23.625 16.125 C-19.46178686 14.35696878 -17.17620104 12.25182487 -14 9 C-10.40746605 6.54474751 -6.70658667 4.27788685 -3 2 C-2.01 1.34 -1.02 0.68 0 0 Z " fill="#45371C" transform="translate(533,775)"/>
<path d="M0 0 C0.99 0.66 1.98 1.32 3 2 C-3.2368789 8.47573809 -9.56686261 14.88257079 -17 20 C-17.66 20 -18.32 20 -19 20 C-19 18.35 -19 16.7 -19 15 C-13.25 12 -13.25 12 -11 12 C-10.34 10.68 -9.68 9.36 -9 8 C-7.68 8 -6.36 8 -5 8 C-4.67 7.01 -4.34 6.02 -4 5 C-3.01 4.67 -2.02 4.34 -1 4 C-0.26676204 1.98491642 -0.26676204 1.98491642 0 0 Z " fill="#E1BF5E" transform="translate(758,549)"/>
<path d="M0 0 C0.33 0.66 0.66 1.32 1 2 C1.66 2 2.32 2 3 2 C3 4.64 3 7.28 3 10 C3.66 10 4.32 10 5 10 C5 10.66 5 11.32 5 12 C4.34 12 3.68 12 3 12 C2.80664062 12.63808594 2.61328125 13.27617188 2.4140625 13.93359375 C2.02347656 15.17302734 2.02347656 15.17302734 1.625 16.4375 C1.24214844 17.67306641 1.24214844 17.67306641 0.8515625 18.93359375 C0 21 0 21 -2 22 C-1.85758352 19.64558284 -1.71115192 17.29152516 -1.5625 14.9375 C-1.48128906 13.62652344 -1.40007813 12.31554687 -1.31640625 10.96484375 C-1.02101751 7.26336762 -0.56734612 3.66629552 0 0 Z " fill="#D9BA64" transform="translate(817,539)"/>
<path d="M0 0 C0.66 0 1.32 0 2 0 C2 11.55 2 23.1 2 35 C1.67 35 1.34 35 1 35 C0.34 32.36 -0.32 29.72 -1 27 C-1.33 27 -1.66 27 -2 27 C-2.22823248 17.71854592 -1.90427108 9.13029973 0 0 Z " fill="#605433" transform="translate(207,432)"/>
<path d="M0 0 C0.33 0 0.66 0 1 0 C0.67 8.25 0.34 16.5 0 25 C-0.99 25.33 -1.98 25.66 -3 26 C-3.30659554 16.84755529 -3.49409003 8.65203245 0 0 Z " fill="#4D4124" transform="translate(260,618)"/>
<path d="M0 0 C6.92043144 -0.24019051 13.23888341 0.35524963 20 1.8125 C20.86850586 1.99264648 21.73701172 2.17279297 22.63183594 2.35839844 C28.52839646 3.60851352 34.27790799 5.092636 40 7 C39.67 7.66 39.34 8.32 39 9 C38.154375 8.690625 37.30875 8.38125 36.4375 8.0625 C33.03065662 6.91079383 33.03065662 6.91079383 29.5 6.5 C26 6 26 6 22.9375 4.9375 C19.798887 3.935815 17.27299168 3.84414325 14 4 C14 3.34 14 2.68 14 2 C13.24074219 2.02320313 12.48148438 2.04640625 11.69921875 2.0703125 C10.70535156 2.08835938 9.71148438 2.10640625 8.6875 2.125 C7.20830078 2.15980469 7.20830078 2.15980469 5.69921875 2.1953125 C3 2 3 2 0 0 Z " fill="#DFC36F" transform="translate(875,1)"/>
<path d="M0 0 C2.27531612 6.82594836 -0.33273993 13.62176941 -3 20 C-5.41180838 16.38228743 -6.26329482 14.5843085 -5.546875 10.2734375 C-5.28390625 9.31695313 -5.0209375 8.36046875 -4.75 7.375 C-4.49734375 6.41335938 -4.2446875 5.45171875 -3.984375 4.4609375 C-3 2 -3 2 0 0 Z " fill="#3D341B" transform="translate(816,564)"/>
<path d="M0 0 C0.66 0.33 1.32 0.66 2 1 C-0.04104571 2.10531407 -2.08286536 3.20919907 -4.125 4.3125 C-5.26195312 4.92738281 -6.39890625 5.54226563 -7.5703125 6.17578125 C-8.70210938 6.77777344 -9.83390625 7.37976563 -11 8 C-12.04929687 8.59167969 -13.09859375 9.18335938 -14.1796875 9.79296875 C-17.25528374 11.10925578 -17.98132468 11.13507101 -21 10 C-22.58025005 9.78807905 -24.16398461 9.60076629 -25.75 9.4375 C-26.54921875 9.35371094 -27.3484375 9.26992188 -28.171875 9.18359375 C-28.77515625 9.12300781 -29.3784375 9.06242188 -30 9 C-30 8.67 -30 8.34 -30 8 C-29.00742187 7.92523437 -28.01484375 7.85046875 -26.9921875 7.7734375 C-18.00843402 6.95157642 -10.81677236 5.09426173 -2.6953125 1.14453125 C-1.80585938 0.76683594 -0.91640625 0.38914062 0 0 Z " fill="#C4B072" transform="translate(513,788)"/>
<path d="M0 0 C3.46926395 1.15642132 3.97198451 2.01694644 6 4.9375 C7.94401596 7.7269604 9.10177325 9.06784883 12 11 C12 11.66 12 12.32 12 13 C12.639375 13.268125 13.27875 13.53625 13.9375 13.8125 C16 15 16 15 17 18 C12.07036752 16.51836649 9.21000663 13.69458752 5.6875 10.125 C5.13771484 9.59519531 4.58792969 9.06539062 4.02148438 8.51953125 C0 4.49305124 0 4.49305124 0 0 Z " fill="#382E18" transform="translate(245,546)"/>
<path d="M0 0 C2.31 1.98 4.62 3.96 7 6 C4.42215154 8.64752004 2.08351902 10.94432065 -1 13 C-2.20577428 8.05632546 -1.6290678 4.79137588 0 0 Z " fill="#E3C159" transform="translate(276,573)"/>
<path d="M0 0 C0.33 1.32 0.66 2.64 1 4 C2.9837767 5.28436734 2.9837767 5.28436734 5 6 C5 6.66 5 7.32 5 8 C7.64 8.33 10.28 8.66 13 9 C13 9.33 13 9.66 13 10 C7.06 10.33 1.12 10.66 -5 11 C-3.35 7.37 -1.7 3.74 0 0 Z " fill="#E8C25A" transform="translate(649,511)"/>
<path d="M0 0 C0 5.16763046 -2.47474704 8.99143539 -5.125 13.3125 C-5.66382813 14.19550781 -6.20265625 15.07851563 -6.7578125 15.98828125 C-7.16773438 16.65214844 -7.57765625 17.31601562 -8 18 C-8.99 17.67 -9.98 17.34 -11 17 C-9.68448876 12.39571066 -7.90803514 8.81679612 -5 5 C-4.34 5 -3.68 5 -3 5 C-2.690625 4.360625 -2.38125 3.72125 -2.0625 3.0625 C-1 1 -1 1 0 0 Z " fill="#5E4F2C" transform="translate(792,511)"/>
<path d="M0 0 C3.64836652 5.47254978 6.68429309 12.37015481 7 19 C6.0078125 21.1640625 6.0078125 21.1640625 5 23 C2.11003121 15.29789712 0.32419014 8.23442944 0 0 Z " fill="#211706" transform="translate(620,254)"/>
<path d="M0 0 C3.27075883 -0.0580476 6.54138524 -0.09361165 9.8125 -0.125 C10.74126953 -0.14175781 11.67003906 -0.15851562 12.62695312 -0.17578125 C13.51962891 -0.18222656 14.41230469 -0.18867187 15.33203125 -0.1953125 C16.15421143 -0.20578613 16.9763916 -0.21625977 17.82348633 -0.22705078 C20 0 20 0 23 2 C16.47945205 3.02283105 16.47945205 3.02283105 13.375 2.875 C10.27993413 3.0378982 8.52122748 4.2711583 6 6 C6 5.01 6 4.02 6 3 C5.38125 3.185625 4.7625 3.37125 4.125 3.5625 C2 4 2 4 0 3 C0 2.01 0 1.02 0 0 Z " fill="#DBBC5F" transform="translate(669,745)"/>
<path d="M0 0 C0.33 0 0.66 0 1 0 C1 3.3 1 6.6 1 10 C1.66 10.33 2.32 10.66 3 11 C2.01 11.495 2.01 11.495 1 12 C1 14.97 1 17.94 1 21 C0.01 21.33 -0.98 21.66 -2 22 C-3.21869929 24.50447516 -3.21869929 24.50447516 -4 27 C-4.99 27 -5.98 27 -7 27 C-6.6390625 26.45472656 -6.278125 25.90945313 -5.90625 25.34765625 C-2.337741 19.54882913 -1.46156947 15.78422471 -2 9 C-1.34 9 -0.68 9 0 9 C0 6.03 0 3.06 0 0 Z " fill="#DABC6A" transform="translate(748,681)"/>
<path d="M0 0 C0.33 0 0.66 0 1 0 C1.67466746 3.22754814 2.33830569 6.45726935 3 9.6875 C3.19078125 10.59951172 3.3815625 11.51152344 3.578125 12.45117188 C3.75859375 13.33740234 3.9390625 14.22363281 4.125 15.13671875 C4.29257812 15.94842529 4.46015625 16.76013184 4.6328125 17.59643555 C5.0153713 20.10061865 5.06298509 22.47075502 5 25 C4.67 24.01 4.34 23.02 4 22 C3.34 22 2.68 22 2 22 C1.80083984 20.60974609 1.80083984 20.60974609 1.59765625 19.19140625 C1.42105469 17.99386719 1.24445312 16.79632813 1.0625 15.5625 C0.88847656 14.36753906 0.71445312 13.17257812 0.53515625 11.94140625 C0.31014787 9.12044324 0.31014787 9.12044324 -1 8 C-1.125 4.5 -1.125 4.5 -1 1 C-0.67 0.67 -0.34 0.34 0 0 Z " fill="#3E3215" transform="translate(657,394)"/>
<path d="M0 0 C0.33 0 0.66 0 1 0 C1.05534912 0.59538574 1.11069824 1.19077148 1.16772461 1.80419922 C1.42018865 4.49487215 1.67876816 7.18492286 1.9375 9.875 C2.02451172 10.81214844 2.11152344 11.74929688 2.20117188 12.71484375 C2.28818359 13.61074219 2.37519531 14.50664062 2.46484375 15.4296875 C2.543396 16.25710449 2.62194824 17.08452148 2.70288086 17.93701172 C2.89777363 20.0581666 2.89777363 20.0581666 4 22 C4.07065617 24.04055005 4.08421976 26.08334257 4.0625 28.125 C4.05347656 29.22070312 4.04445312 30.31640625 4.03515625 31.4453125 C4.02355469 32.28835938 4.01195312 33.13140625 4 34 C3.67 34 3.34 34 3 34 C0.5860935 22.51957562 -0.39624358 11.72587479 0 0 Z " fill="#140A01" transform="translate(206,447)"/>
<path d="M0 0 C0.33 0 0.66 0 1 0 C3.26967735 6.43075251 3.43193658 12.66016946 3.625 19.4375 C3.66367187 20.55060547 3.70234375 21.66371094 3.7421875 22.81054688 C3.83590966 25.54020476 3.92162294 28.26986563 4 31 C3.67 31 3.34 31 3 31 C2.48967332 27.52226842 1.99366732 24.04263225 1.5 20.5625 C1.35691406 19.58861328 1.21382813 18.61472656 1.06640625 17.61132812 C0.23231939 11.67342403 -0.14880874 5.99575234 0 0 Z " fill="#D7BA66" transform="translate(0,866)"/>
<path d="M0 0 C0.66 0.99 1.32 1.98 2 3 C1.01 3.33 0.02 3.66 -1 4 C-1.73323796 6.01508358 -1.73323796 6.01508358 -2 8 C-4.31 8 -6.62 8 -9 8 C-8.67 7.34 -8.34 6.68 -8 6 C-8.99 6 -9.98 6 -11 6 C-8.33441197 2.55041549 -5.08817247 2.05989657 -1 1 C-0.67 0.67 -0.34 0.34 0 0 Z " fill="#D0B261" transform="translate(725,727)"/>
<path d="M0 0 C0.66 0 1.32 0 2 0 C2.05416741 2.72943537 2.09375225 5.45778564 2.125 8.1875 C2.15013672 9.34088867 2.15013672 9.34088867 2.17578125 10.51757812 C2.21266851 14.8149434 1.9958504 18.07901831 0 22 C-0.33 22 -0.66 22 -1 22 C-1.10331031 14.57313685 -0.99862699 7.36487404 0 0 Z " fill="#F0D172" transform="translate(635,324)"/>
<path d="M0 0 C2 0 2 0 3.625 1.375 C5 3 5 3 5 5 C6.32 5.33 7.64 5.66 9 6 C9 6.66 9 7.32 9 8 C9.66 8 10.32 8 11 8 C10.67 8.99 10.34 9.98 10 11 C9.1028125 10.2884375 9.1028125 10.2884375 8.1875 9.5625 C5.99617076 7.83534256 5.99617076 7.83534256 3 7 C3 6.34 3 5.68 3 5 C2.34 5 1.68 5 1 5 C1 4.34 1 3.68 1 3 C-0.32 3 -1.64 3 -3 3 C-2.67 3.99 -2.34 4.98 -2 6 C-2.99 5.67 -3.98 5.34 -5 5 C-4.67 4.01 -4.34 3.02 -4 2 C-2.68 2 -1.36 2 0 2 C0 1.34 0 0.68 0 0 Z " fill="#D1B45D" transform="translate(804,505)"/>
<path d="M0 0 C0.99 0 1.98 0 3 0 C5.29612756 9.41002278 5.29612756 9.41002278 5 14 C4.34 14 3.68 14 3 14 C0.96006486 9.07015675 -0.40652968 5.42039575 0 0 Z " fill="#312A1B" transform="translate(258,644)"/>
<path d="M0 0 C0.99 0 1.98 0 3 0 C3.33 1.98 3.66 3.96 4 6 C5.65 6 7.3 6 9 6 C9.33 5.34 9.66 4.68 10 4 C12.31 4.33 14.62 4.66 17 5 C17 5.33 17 5.66 17 6 C6.98387097 8.64041746 6.98387097 8.64041746 3 7 C0.55352838 4.46916729 0 3.5747073 0 0 Z " fill="#D5B866" transform="translate(369,257)"/>
<path d="M0 0 C10.55808656 -0.18451025 10.55808656 -0.18451025 15 1 C15.33 2.32 15.66 3.64 16 5 C11.94087374 6.35304209 10.22850409 5.15216503 6.3125 3.5625 C5.13300781 3.08941406 3.95351563 2.61632812 2.73828125 2.12890625 C1.83464844 1.75636719 0.93101562 1.38382813 0 1 C0 0.67 0 0.34 0 0 Z " fill="#DBBA5C" transform="translate(671,522)"/>
<path d="M0 0 C0.99 1.485 0.99 1.485 2 3 C2.66 3.33 3.32 3.66 4 4 C3.67 4.66 3.34 5.32 3 6 C2.84733388 7.73868744 2.75067404 9.48247501 2.68359375 11.2265625 C2.64169922 12.2578125 2.59980469 13.2890625 2.55664062 14.3515625 C2.49766602 15.97191406 2.49766602 15.97191406 2.4375 17.625 C2.39431641 18.71296875 2.35113281 19.8009375 2.30664062 20.921875 C2.2003547 23.6144517 2.09831943 26.30712253 2 29 C1.67 29 1.34 29 1 29 C0.67 19.43 0.34 9.86 0 0 Z " fill="#E0C36B" transform="translate(633,304)"/>
<path d="M0 0 C-1.12047806 3.36143418 -2.49707183 4.57528834 -5 7 C-5.33 7.66 -5.66 8.32 -6 9 C-6.66 9 -7.32 9 -8 9 C-8 9.66 -8 10.32 -8 11 C-9.98 11.33 -11.96 11.66 -14 12 C-5.27272727 0 -5.27272727 0 0 0 Z " fill="#D7BA66" transform="translate(60,36)"/>
<path d="M0 0 C2.4375 1.75 2.4375 1.75 4.4375 4.75 C3.4475 5.74 2.4575 6.73 1.4375 7.75 C1.4375 7.09 1.4375 6.43 1.4375 5.75 C0.7775 5.75 0.1175 5.75 -0.5625 5.75 C-0.5625 5.09 -0.5625 4.43 -0.5625 3.75 C-1.2225 3.75 -1.8825 3.75 -2.5625 3.75 C-2.5625 3.09 -2.5625 2.43 -2.5625 1.75 C-3.5525 1.75 -4.5425 1.75 -5.5625 1.75 C-5.5625 1.09 -5.5625 0.43 -5.5625 -0.25 C-2.5625 -1.25 -2.5625 -1.25 0 0 Z " fill="#DCBB5B" transform="translate(391.5625,761.25)"/>
<path d="M0 0 C0.99 0.33 1.98 0.66 3 1 C3 4.63 3 8.26 3 12 C3.66 12 4.32 12 5 12 C4.67 12.99 4.34 13.98 4 15 C3.34 14.34 2.68 13.68 2 13 C2 12.01 2 11.02 2 10 C1.34 10 0.68 10 0 10 C0 6.7 0 3.4 0 0 Z " fill="#A7A8A7" transform="translate(696,576)"/>
<path d="M0 0 C0.33 0.66 0.66 1.32 1 2 C-1.53363068 6.22271781 -3.56620325 8.78310162 -8 11 C-8.33 10.01 -8.66 9.02 -9 8 C-6.6875 5.5 -6.6875 5.5 -4 3 C-3.01 3 -2.02 3 -1 3 C-0.67 2.01 -0.34 1.02 0 0 Z " fill="#EACA6F" transform="translate(782,522)"/>
<path d="M0 0 C0.66 0.99 1.32 1.98 2 3 C1.34 3 0.68 3 0 3 C0.226875 3.53625 0.45375 4.0725 0.6875 4.625 C1.1528547 8.16169569 -0.13265035 10.03799711 -2 13 C-4.11328125 14.1796875 -4.11328125 14.1796875 -6 15 C-3.10933941 4.44191344 -3.10933941 4.44191344 0 0 Z " fill="#917E4C" transform="translate(802,607)"/>
<path d="M0 0 C0.33 0.66 0.66 1.32 1 2 C-0.78524649 3.19713017 -2.5784028 4.38247279 -4.375 5.5625 C-5.87160156 6.55443359 -5.87160156 6.55443359 -7.3984375 7.56640625 C-8.25695312 8.03949219 -9.11546875 8.51257813 -10 9 C-10.66 8.67 -11.32 8.34 -12 8 C-8.35248219 2.91558124 -6.14830711 1.20555041 0 0 Z " fill="#504122" transform="translate(718,731)"/>
<path d="M0 0 C1.32 0.66 2.64 1.32 4 2 C3.375 3.9375 3.375 3.9375 2 6 C-1.0625 6.625 -1.0625 6.625 -4 7 C-4.33 7.66 -4.66 8.32 -5 9 C-5.66 8.67 -6.32 8.34 -7 8 C-6 5 -6 5 -4.0625 4 C-3.0415625 3.505 -3.0415625 3.505 -2 3 C-1.34 2.01 -0.68 1.02 0 0 Z " fill="#D8B85E" transform="translate(779,648)"/>
<path d="M0 0 C-1.63099751 1.80268146 -3.03820082 3.02073759 -5.1875 4.1875 C-9.35567437 6.87365681 -12.58334282 10.43073778 -16 14 C-16.66 13.67 -17.32 13.34 -18 13 C-16.0894422 11.03536981 -14.17204686 9.07833599 -12.25 7.125 C-11.44175781 6.29162109 -11.44175781 6.29162109 -10.6171875 5.44140625 C-3.50831653 -1.75415827 -3.50831653 -1.75415827 0 0 Z " fill="#1E1406" transform="translate(264,324)"/>
<path d="M0 0 C1.79068573 2.6860286 2.66055791 4.6626589 3.625 7.6875 C3.88539063 8.49574219 4.14578125 9.30398437 4.4140625 10.13671875 C4.60742188 10.75160156 4.80078125 11.36648437 5 12 C4.34 12 3.68 12 3 12 C2.01 13.485 2.01 13.485 1 15 C0.67 14.34 0.34 13.68 0 13 C0.33 12.34 0.66 11.68 1 11 C0.34 11 -0.32 11 -1 11 C-0.835 9.9275 -0.67 8.855 -0.5 7.75 C0.08810915 3.96971248 0.08810915 3.96971248 0 0 Z " fill="#D6B861" transform="translate(1010,95)"/>
<path d="M0 0 C1.98 0.495 1.98 0.495 4 1 C3.40895235 5.84659077 2.02055843 9.60748167 0 14 C-0.33 14 -0.66 14 -1 14 C-0.67 9.38 -0.34 4.76 0 0 Z " fill="#1C1608" transform="translate(665,745)"/>
<path d="M0 0 C0.33 0.99 0.66 1.98 1 3 C1.99 2.67 2.98 2.34 4 2 C3.979375 2.94875 3.95875 3.8975 3.9375 4.875 C3.77448174 7.90666283 3.77448174 7.90666283 5 10 C4.34 10 3.68 10 3 10 C3 10.66 3 11.32 3 12 C3.66 12.33 4.32 12.66 5 13 C3.68 13.33 2.36 13.66 1 14 C0.67 9.38 0.34 4.76 0 0 Z " fill="#E9CC74" transform="translate(714,565)"/>
<path d="M0 0 C0.33 0 0.66 0 1 0 C1.02689216 1.47906892 1.04634621 2.95827483 1.0625 4.4375 C1.07410156 5.26121094 1.08570313 6.08492188 1.09765625 6.93359375 C1 9 1 9 0 10 C-0.23287008 11.68183948 -0.41264166 13.3712416 -0.5625 15.0625 C-0.68818359 16.44115234 -0.68818359 16.44115234 -0.81640625 17.84765625 C-0.87699219 18.55792969 -0.93757812 19.26820313 -1 20 C-3.94981688 14.97396586 -2.80682883 10.32437741 -1.48046875 4.859375 C-1.02009794 3.22986105 -0.51483052 1.61313563 0 0 Z " fill="#D1B566" transform="translate(6,115)"/>
<path d="M0 0 C6.6 0 13.2 0 20 0 C20.33 0.99 20.66 1.98 21 3 C14.07 2.34 7.14 1.68 0 1 C0 0.67 0 0.34 0 0 Z " fill="#33270A" transform="translate(874,0)"/>
<path d="M0 0 C0 0.66 0 1.32 0 2 C0.99 2.33 1.98 2.66 3 3 C-9.66970387 3.18451025 -9.66970387 3.18451025 -15 2 C-15 1.67 -15 1.34 -15 1 C-13.43784452 0.83013455 -11.8752548 0.66426036 -10.3125 0.5 C-9.44238281 0.4071875 -8.57226562 0.314375 -7.67578125 0.21875 C-5.10276661 0.00840136 -2.58015636 -0.03719144 0 0 Z " fill="#C3A753" transform="translate(153,1021)"/>
<path d="M0 0 C0 0.66 0 1.32 0 2 C-1.26607607 2.53229326 -2.53810412 3.05044544 -3.8125 3.5625 C-4.52019531 3.85253906 -5.22789062 4.14257812 -5.95703125 4.44140625 C-8 5 -8 5 -11 4 C-10.01 3.67 -9.02 3.34 -8 3 C-8.33 2.01 -8.66 1.02 -9 0 C-2.25 -1.125 -2.25 -1.125 0 0 Z " fill="#DFC165" transform="translate(926,1010)"/>
<path d="M0 0 C3.11920338 0.33420036 3.95474254 0.94788534 6.0625 3.375 C6.701875 4.24125 7.34125 5.1075 8 6 C8.98230498 7.0173873 9.97469597 8.02596117 11 9 C8.5 8 8.5 8 6 7 C5.0925 6.731875 4.185 6.46375 3.25 6.1875 C1 5 1 5 0.1875 2.375 C0.125625 1.59125 0.06375 0.8075 0 0 Z " fill="#E0C46D" transform="translate(401,770)"/>
<path d="M0 0 C-2.95183101 2.95183101 -5.95511947 3.08663988 -10 4 C-10 1 -10 1 -8 -1 C-4.64329747 -2.34268101 -3.0446929 -1.84856355 0 0 Z " fill="#150E06" transform="translate(513,788)"/>
<path d="M0 0 C0.33 0.99 0.66 1.98 1 3 C-0.07107117 3.86949317 -1.15745944 4.72014205 -2.25 5.5625 C-2.85328125 6.03816406 -3.4565625 6.51382813 -4.078125 7.00390625 C-6 8 -6 8 -10 7 C-6.7 4.69 -3.4 2.38 0 0 Z " fill="#665837" transform="translate(533,775)"/>
<path d="M0 0 C2.72675159 2.40689803 4.11966596 4.92471023 5.6875 8.1875 C6.12449219 9.08855469 6.56148438 9.98960937 7.01171875 10.91796875 C7.33785156 11.60503906 7.66398437 12.29210937 8 13 C6 13 6 13 3.875 11.25 C2 9 2 9 2 5 C1.34 5 0.68 5 0 5 C0 3.35 0 1.7 0 0 Z " fill="#D5B861" transform="translate(334,690)"/>
<path d="M0 0 C1 2 1 2 0.9375 3.875 C-0.52395936 7.18764122 -2.88823697 8.31964796 -6 10 C-6.99 9.67 -7.98 9.34 -9 9 C-7.6078125 7.88625 -7.6078125 7.88625 -6.1875 6.75 C-3.72873042 4.70974439 -1.78352451 2.67528677 0 0 Z " fill="#D6BD66" transform="translate(313,658)"/>
<path d="M0 0 C0.33 1.32 0.66 2.64 1 4 C-1.31 5.98 -3.62 7.96 -6 10 C-6.33 9.01 -6.66 8.02 -7 7 C-5.625 5.5 -5.625 5.5 -4 4 C-3.34 4 -2.68 4 -2 4 C-1.34 2.68 -0.68 1.36 0 0 Z " fill="#F3F3F4" transform="translate(308,636)"/>
<path d="M0 0 C0.66 0 1.32 0 2 0 C2 2.31 2 4.62 2 7 C2.66 7 3.32 7 4 7 C4 7.66 4 8.32 4 9 C3.34 9 2.68 9 2 9 C1.34 10.65 0.68 12.3 0 14 C-1.10370043 10.6888987 -0.92673641 8.75251051 -0.5625 5.3125 C-0.46066406 4.31863281 -0.35882812 3.32476563 -0.25390625 2.30078125 C-0.17011719 1.54152344 -0.08632813 0.78226563 0 0 Z " fill="#AD8D39" transform="translate(818,542)"/>
<path d="M0 0 C0.33 0.66 0.66 1.32 1 2 C1.66 2 2.32 2 3 2 C1.54955729 6.10958767 -0.51110752 9.43258745 -3 13 C-4 11 -4 11 -3.22265625 8.3984375 C-2.83980469 7.40070313 -2.45695312 6.40296875 -2.0625 5.375 C-1.68222656 4.37210937 -1.30195313 3.36921875 -0.91015625 2.3359375 C-0.60980469 1.56507813 -0.30945313 0.79421875 0 0 Z " fill="#23190A" transform="translate(276,267)"/>
<path d="M0 0 C3.08089673 2.77280706 4.68775452 5.06326356 6 9 C5.01 9.33 4.02 9.66 3 10 C0.59185923 6.48812804 -0.36629408 4.27343092 0 0 Z M-1 7 C-0.34 7 0.32 7 1 7 C1 7.66 1 8.32 1 9 C0.34 9 -0.32 9 -1 9 C-1 8.34 -1 7.68 -1 7 Z " fill="#DBBD63" transform="translate(995,69)"/>
<path d="M0 0 C4.08963819 2.28538605 7.46362104 4.95706926 11 8 C10.01 8.66 9.02 9.32 8 10 C7.566875 9.525625 7.13375 9.05125 6.6875 8.5625 C4.97690387 6.76313043 4.97690387 6.76313043 2 6 C0.8125 2.9375 0.8125 2.9375 0 0 Z " fill="#DBC06B" transform="translate(369,742)"/>
<path d="M0 0 C7.75 1.625 7.75 1.625 10 5 C8.02 5.66 6.04 6.32 4 7 C4.33 5.68 4.66 4.36 5 3 C3.35 2.67 1.7 2.34 0 2 C0 1.34 0 0.68 0 0 Z " fill="#CFB45B" transform="translate(446,790)"/>
<path d="M0 0 C1.42944945 2.35438733 2.08661261 3.48032433 1.625 6.25 C1.41875 6.8275 1.2125 7.405 1 8 C0.360625 8.12375 -0.27875 8.2475 -0.9375 8.375 C-1.618125 8.58125 -2.29875 8.7875 -3 9 C-3.33 9.66 -3.66 10.32 -4 11 C-3.39301257 6.87248551 -1.96189209 3.6678852 0 0 Z " fill="#EACC73" transform="translate(668,751)"/>
<path d="M0 0 C2.83022801 0.36397611 3.90783172 0.90764775 5.95703125 2.9609375 C6.87548828 4.15589844 6.87548828 4.15589844 7.8125 5.375 C8.43769531 6.16648437 9.06289062 6.95796875 9.70703125 7.7734375 C10.13371094 8.50820313 10.56039062 9.24296875 11 10 C10.67 10.99 10.34 11.98 10 13 C7.42634911 11.71317455 7.27651028 10.55302057 6 8 C3.47623334 4.44767305 3.47623334 4.44767305 0 2 C0 1.34 0 0.68 0 0 Z " fill="#D5B965" transform="translate(229,530)"/>
<path d="M0 0 C0.66 0 1.32 0 2 0 C1.34 5.94 0.68 11.88 0 18 C-0.33 18 -0.66 18 -1 18 C-1.02690844 15.37493198 -1.04679404 12.75013827 -1.0625 10.125 C-1.07087891 9.37863281 -1.07925781 8.63226563 -1.08789062 7.86328125 C-1.11328125 2.2265625 -1.11328125 2.2265625 0 0 Z " fill="#251905" transform="translate(1,130)"/>
<path d="M0 0 C3.63 0.33 7.26 0.66 11 1 C11 1.66 11 2.32 11 3 C12.32 3.33 13.64 3.66 15 4 C11.21180727 5.43410153 8.93478721 4.51009497 5.25 3.0625 C3.77273437 2.49208984 3.77273437 2.49208984 2.265625 1.91015625 C1.51796875 1.60980469 0.7703125 1.30945313 0 1 C0 0.67 0 0.34 0 0 Z " fill="#D6BB67" transform="translate(100,1012)"/>
<path d="M0 0 C0.33 0.99 0.66 1.98 1 3 C0.67 3.66 0.34 4.32 0 5 C4.95 5 9.9 5 15 5 C15 5.33 15 5.66 15 6 C9.06 6.33 3.12 6.66 -3 7 C-2.01 4.69 -1.02 2.38 0 0 Z " fill="#C3AB68" transform="translate(647,515)"/>
<path d="M0 0 C2.3129482 2.3129482 2.49580975 3.47904875 3.125 6.625 C3.29257812 7.44226563 3.46015625 8.25953125 3.6328125 9.1015625 C3.81457031 10.04128906 3.81457031 10.04128906 4 11 C3.34 11 2.68 11 2 11 C-0.25 8.3125 -0.25 8.3125 -2 5 C-1.25 2.125 -1.25 2.125 0 0 Z " fill="#281F0C" transform="translate(651,376)"/>
<path d="M0 0 C-0.97566112 1.16959987 -1.955625 2.33561177 -2.9375 3.5 C-3.48277344 4.1496875 -4.02804687 4.799375 -4.58984375 5.46875 C-5.05519531 5.9740625 -5.52054688 6.479375 -6 7 C-6.33 7 -6.66 7 -7 7 C-7 5.02 -7 3.04 -7 1 C-3.375 -1.125 -3.375 -1.125 0 0 Z " fill="#DFBF66" transform="translate(777,533)"/>
<path d="M0 0 C0.33 0.66 0.66 1.32 1 2 C-3.53333333 4.8962963 -3.53333333 4.8962963 -6.25 5.5 C-6.8275 5.665 -7.405 5.83 -8 6 C-8.33 6.99 -8.66 7.98 -9 9 C-10.32 8.67 -11.64 8.34 -13 8 C-8.78542278 4.88121286 -4.77826683 2.21431878 0 0 Z " fill="#E5E5E5" transform="translate(553,270)"/>
<path d="M0 0 C0.33 0 0.66 0 1 0 C1 3.3 1 6.6 1 10 C1.66 10.33 2.32 10.66 3 11 C2.01 11.495 2.01 11.495 1 12 C-0.13350534 14.01669827 -0.13350534 14.01669827 -1 16 C-1.33 13.69 -1.66 11.38 -2 9 C-1.34 9 -0.68 9 0 9 C0 6.03 0 3.06 0 0 Z " fill="#9B8441" transform="translate(748,681)"/>
<path d="M0 0 C0.66 0 1.32 0 2 0 C1.49396008 2.16874252 1.00016187 3.99967627 0 6 C-0.66 6 -1.32 6 -2 6 C-2.66 7.32 -3.32 8.64 -4 10 C-4.99 10 -5.98 10 -7 10 C-5.88321917 8.3278148 -4.75633648 6.66237197 -3.625 5 C-2.99851562 4.071875 -2.37203125 3.14375 -1.7265625 2.1875 C-1.15679688 1.465625 -0.58703125 0.74375 0 0 Z " fill="#E3C670" transform="translate(789,636)"/>
<path d="M0 0 C1.65 1.65 3.3 3.3 5 5 C2.36 6.98 -0.28 8.96 -3 11 C-3 10.01 -3 9.02 -3 8 C-2.34 8 -1.68 8 -1 8 C-1 7.34 -1 6.68 -1 6 C-0.01 6 0.98 6 2 6 C1.34 4.02 0.68 2.04 0 0 Z " fill="#D0B769" transform="translate(278,575)"/>
<path d="M0 0 C0.99 0.66 1.98 1.32 3 2 C1.71451591 3.33929505 0.42141845 4.67128643 -0.875 6 C-1.59429688 6.7425 -2.31359375 7.485 -3.0546875 8.25 C-5 10 -5 10 -7 10 C-7 9.34 -7 8.68 -7 8 C-6.34 8 -5.68 8 -5 8 C-4.67 7.01 -4.34 6.02 -4 5 C-3.01 4.67 -2.02 4.34 -1 4 C-0.26676204 1.98491642 -0.26676204 1.98491642 0 0 Z " fill="#DABE6F" transform="translate(758,549)"/>
<path d="M0 0 C1.32 0.33 2.64 0.66 4 1 C5.03039555 5.53374042 5.17766075 6.64467851 3 11 C2.01 7.37 1.02 3.74 0 0 Z " fill="#4B4230" transform="translate(622,266)"/>
<path d="M0 0 C0 1.98 0 3.96 0 6 C-2.97 5.505 -2.97 5.505 -6 5 C-6 4.34 -6 3.68 -6 3 C-2.53846154 0 -2.53846154 0 0 0 Z " fill="#E2C260" transform="translate(518,789)"/>
<path d="M0 0 C0.99 0.99 1.98 1.98 3 3 C0.36 4.98 -2.28 6.96 -5 9 C-5 7.35 -5 5.7 -5 4 C-4.01 4 -3.02 4 -2 4 C-1.34 2.68 -0.68 1.36 0 0 Z " fill="#D4B561" transform="translate(749,557)"/>
<path d="M0 0 C0.66 0.33 1.32 0.66 2 1 C1.39009109 4.55780196 0.4216319 7.6828589 -1 11 C-1.66 10.01 -2.32 9.02 -3 8 C-2.1875 5.5 -2.1875 5.5 -1 3 C-0.67 2.01 -0.34 1.02 0 0 Z " fill="#E1C369" transform="translate(1013,915)"/>
<path d="M0 0 C0.33 0.99 0.66 1.98 1 3 C-3.62 3 -8.24 3 -13 3 C-13 2.67 -13 2.34 -13 2 C-11.39658445 1.66307215 -9.79223445 1.33058907 -8.1875 1 C-7.29417969 0.814375 -6.40085937 0.62875 -5.48046875 0.4375 C-3 0 -3 0 0 0 Z " fill="#221905" transform="translate(292,670)"/>
<path d="M0 0 C0.99 0 1.98 0 3 0 C2.47731534 2.76276177 1.89130413 5.3260876 1 8 C-1 7 -1 7 -2 4 C-1.0625 1.8125 -1.0625 1.8125 0 0 Z " fill="#CCB05F" transform="translate(791,628)"/>
<path d="M0 0 C2.31 1.65 4.62 3.3 7 5 C6.34 5.66 5.68 6.32 5 7 C4.01 7 3.02 7 2 7 C1.87625 6.195625 1.7525 5.39125 1.625 4.5625 C1.315625 3.2940625 1.315625 3.2940625 1 2 C0.34 1.67 -0.32 1.34 -1 1 C-0.67 0.67 -0.34 0.34 0 0 Z " fill="#CEB360" transform="translate(262,563)"/>
<path d="M0 0 C2 4 2 4 2 7 C0.35 7.66 -1.3 8.32 -3 9 C-2.01 6.03 -1.02 3.06 0 0 Z " fill="#D3B35E" transform="translate(658,488)"/>
<path d="M0 0 C2 2 2 2 2.1953125 4.8203125 C2.16050781 6.45613281 2.16050781 6.45613281 2.125 8.125 C2.10695312 9.22070312 2.08890625 10.31640625 2.0703125 11.4453125 C2.04710937 12.28835938 2.02390625 13.13140625 2 14 C1.67 14 1.34 14 1 14 C0.63659714 12.23103898 0.28459117 10.45973374 -0.0625 8.6875 C-0.25972656 7.70136719 -0.45695313 6.71523438 -0.66015625 5.69921875 C-1 3 -1 3 0 0 Z " fill="#3B2F13" transform="translate(208,467)"/>
<path d="M0 0 C0.66 1.65 1.32 3.3 2 5 C1.34 5.66 0.68 6.32 0 7 C-1.65 5.02 -3.3 3.04 -5 1 C-2 0 -2 0 0 0 Z " fill="#DBBB5D" transform="translate(617,241)"/>
<path d="M0 0 C1.60226148 4.00565371 0.47694566 7.08609399 -1 11 C-1.99 11.33 -2.98 11.66 -4 12 C-2.66666667 8 -1.33333333 4 0 0 Z " fill="#D1B669" transform="translate(13,95)"/>
<path d="M0 0 C1.98 0.99 3.96 1.98 6 3 C4.71034824 4.37562854 3.37310707 5.70766393 2 7 C1.34 7 0.68 7 0 7 C0 4.69 0 2.38 0 0 Z " fill="#DDBD60" transform="translate(945,22)"/>
<path d="M0 0 C0.66 0.33 1.32 0.66 2 1 C-1.96 4.465 -1.96 4.465 -6 8 C-6.66 7.01 -7.32 6.02 -8 5 C-6.71475739 4.13619741 -5.42157581 3.28419631 -4.125 2.4375 C-3.04605469 1.72400391 -3.04605469 1.72400391 -1.9453125 0.99609375 C-1.30335938 0.66738281 -0.66140625 0.33867188 0 0 Z " fill="#1D1506" transform="translate(952,997)"/>
<path d="M0 0 C2.64 0 5.28 0 8 0 C8 0.66 8 1.32 8 2 C4.7 2.33 1.4 2.66 -2 3 C-1.34 2.67 -0.68 2.34 0 2 C0 1.34 0 0.68 0 0 Z " fill="#807447" transform="translate(470,795)"/>
<path d="M0 0 C0.99 0.33 1.98 0.66 3 1 C-0.44615385 5.8 -0.44615385 5.8 -3.25 6.8125 C-4.11625 6.9053125 -4.11625 6.9053125 -5 7 C-3.75023244 3.34683329 -3.32901247 2.21934164 0 0 Z " fill="#7F817F" transform="translate(755,645)"/>
<path d="M0 0 C0.66 0.33 1.32 0.66 2 1 C0.02 3.97 -1.96 6.94 -4 10 C-5 6 -5 6 -3.6875 3.3125 C-2 1 -2 1 0 0 Z " fill="#33260C" transform="translate(789,634)"/>
<path d="M0 0 C1.21236328 0.01353516 1.21236328 0.01353516 2.44921875 0.02734375 C3.37154297 0.04474609 3.37154297 0.04474609 4.3125 0.0625 C4.3125 0.3925 4.3125 0.7225 4.3125 1.0625 C2.3325 1.0625 0.3525 1.0625 -1.6875 1.0625 C-2.0175 2.0525 -2.3475 3.0425 -2.6875 4.0625 C-3.6775 4.0625 -4.6675 4.0625 -5.6875 4.0625 C-5.6875 3.4025 -5.6875 2.7425 -5.6875 2.0625 C-6.3475 1.7325 -7.0075 1.4025 -7.6875 1.0625 C-4.80538698 0.10179566 -2.98899956 -0.04331883 0 0 Z " fill="#D2D1D1" transform="translate(719.6875,593.9375)"/>
<path d="M0 0 C2.02907167 3.3146667 2.12742133 5.4315979 1.625 9.25 C1.51414062 10.14203125 1.40328125 11.0340625 1.2890625 11.953125 C1.19367187 12.62859375 1.09828125 13.3040625 1 14 C0.67 14 0.34 14 0 14 C-0.19532961 12.2300132 -0.38098882 10.45895721 -0.5625 8.6875 C-0.66691406 7.70136719 -0.77132812 6.71523438 -0.87890625 5.69921875 C-1 3 -1 3 0 0 Z " fill="#5D5E5E" transform="translate(611,281)"/>
<path d="M0 0 C0.33 0.66 0.66 1.32 1 2 C-2.96 2 -6.92 2 -11 2 C-4.03846154 -1.48076923 -4.03846154 -1.48076923 0 0 Z " fill="#1C130B" transform="translate(485,796)"/>
<path d="M0 0 C0.66 0.33 1.32 0.66 2 1 C2 1.66 2 2.32 2 3 C1.01 3 0.02 3 -1 3 C-1 3.66 -1 4.32 -1 5 C-1.66 5 -2.32 5 -3 5 C-3.33 5.99 -3.66 6.98 -4 8 C-4.99 7.67 -5.98 7.34 -7 7 C-4.66666667 4.66666667 -2.33333333 2.33333333 0 0 Z " fill="#D9BE67" transform="translate(761,662)"/>
<path d="M0 0 C0.99 0.33 1.98 0.66 3 1 C2.67 3.97 2.34 6.94 2 10 C0.0044484 6.00889681 -0.19546065 4.30013434 0 0 Z " fill="#242425" transform="translate(457,621)"/>
<path d="M0 0 C0.33 0.66 0.66 1.32 1 2 C0.06553465 4.03144641 -0.93224776 6.03533587 -2 8 C-3.32 7.67 -4.64 7.34 -6 7 C-4.02 4.69 -2.04 2.38 0 0 Z " fill="#261A07" transform="translate(780,528)"/>
<path d="M0 0 C1.32 1.32 2.64 2.64 4 4 C2.02 4.66 0.04 5.32 -2 6 C-1.125 1.125 -1.125 1.125 0 0 Z " fill="#EDECEC" transform="translate(355,266)"/>
<path d="M0 0 C4.455 0.99 4.455 0.99 9 2 C9 2.33 9 2.66 9 3 C3.58461538 4.23076923 3.58461538 4.23076923 0.625 3.0625 C0.08875 2.711875 -0.4475 2.36125 -1 2 C-0.67 1.34 -0.34 0.68 0 0 Z " fill="#4F4831" transform="translate(457,792)"/>
<path d="M0 0 C-3.1749094 1.9078584 -5.10585211 2.1609041 -8.75 1.625 C-9.54921875 1.51414062 -10.3484375 1.40328125 -11.171875 1.2890625 C-11.77515625 1.19367187 -12.3784375 1.09828125 -13 1 C-13 0.67 -13 0.34 -13 0 C-8.37078475 -1.0161692 -4.65537393 -0.83796731 0 0 Z " fill="#CDB360" transform="translate(692,746)"/>
<path d="M0 0 C1.32 0.66 2.64 1.32 4 2 C3.030625 2.268125 2.06125 2.53625 1.0625 2.8125 C0.051875 3.204375 -0.95875 3.59625 -2 4 C-2.33 4.99 -2.66 5.98 -3 7 C-3.66 6.34 -4.32 5.68 -5 5 C-3.35 3.35 -1.7 1.7 0 0 Z " fill="#110D07" transform="translate(713,729)"/>
<path d="M0 0 C0.66 0.66 1.32 1.32 2 2 C0.6875 5.4375 0.6875 5.4375 -1 9 C-1.99 9.33 -2.98 9.66 -4 10 C-4 9.34 -4 8.68 -4 8 C-3.34 8 -2.68 8 -2 8 C-1.7834375 6.576875 -1.7834375 6.576875 -1.5625 5.125 C-1 2 -1 2 0 0 Z " fill="#B9A15A" transform="translate(807,594)"/>
<path d="M0 0 C2.79872437 2.52788007 4.45773019 4.20411134 5 8 C2.525 7.01 2.525 7.01 0 6 C0 4.02 0 2.04 0 0 Z " fill="#DBC068" transform="translate(217,507)"/>
<path d="M0 0 C0.33 0.99 0.66 1.98 1 3 C1.66 3 2.32 3 3 3 C2.39816251 5.02045442 1.72693904 7.02111039 1 9 C0.01 9.495 0.01 9.495 -1 10 C-0.67 6.7 -0.34 3.4 0 0 Z " fill="#CFB05F" transform="translate(660,477)"/>
<path d="M0 0 C0.66 0.33 1.32 0.66 2 1 C1.67 2.98 1.34 4.96 1 7 C0.01 6.67 -0.98 6.34 -2 6 C-2.6875 3.9375 -2.6875 3.9375 -3 2 C-2.01 1.34 -1.02 0.68 0 0 Z " fill="#E2BF5D" transform="translate(267,285)"/>
<path d="M0 0 C0.97687451 3.03916514 1.105817 4.98413546 0 8 C-0.66 8.66 -1.32 9.32 -2 10 C-2.6875 8.375 -2.6875 8.375 -3 6 C-1.5625 2.75 -1.5625 2.75 0 0 Z " fill="#D6B964" transform="translate(17,87)"/>
<path d="M0 0 C0.33 0.99 0.66 1.98 1 3 C-1.64 2.67 -4.28 2.34 -7 2 C-5.26578631 -1.46842738 -3.40984787 -1.13661596 0 0 Z " fill="#D4B560" transform="translate(134,1019)"/>
<path d="M0 0 C0.99 0.33 1.98 0.66 3 1 C3 1.99 3 2.98 3 4 C0.625 4.625 0.625 4.625 -2 5 C-2.66 4.34 -3.32 3.68 -4 3 C-2.68 2.67 -1.36 2.34 0 2 C0 1.34 0 0.68 0 0 Z " fill="#DBBB5C" transform="translate(87,1001)"/>
<path d="M0 0 C3.32901247 2.21934164 3.75023244 3.34683329 5 7 C4.01 7.495 4.01 7.495 3 8 C1.02 4.535 1.02 4.535 -1 1 C-0.67 0.67 -0.34 0.34 0 0 Z " fill="#E4E5E5" transform="translate(344,672)"/>
<path d="M0 0 C0.66 0.99 1.32 1.98 2 3 C0.625 4.5 0.625 4.5 -1 6 C-1.66 6 -2.32 6 -3 6 C-3 5.34 -3 4.68 -3 4 C-3.66 3.67 -4.32 3.34 -5 3 C-3.35 2.01 -1.7 1.02 0 0 Z " fill="#1C1B1B" transform="translate(485,649)"/>
<path d="M0 0 C-1.6875 1.5625 -1.6875 1.5625 -4 3 C-6.75 2.6875 -6.75 2.6875 -9 2 C-8 0 -8 0 -6.1875 -0.6875 C-3.81180233 -1.02688538 -2.26664171 -0.72856341 0 0 Z " fill="#D9B85E" transform="translate(732,573)"/>
<path d="M0 0 C0.66 0 1.32 0 2 0 C2.33 3.3 2.66 6.6 3 10 C2.67 9.01 2.34 8.02 2 7 C1.34 7 0.68 7 0 7 C0 4.69 0 2.38 0 0 Z " fill="#8F7A42" transform="translate(659,409)"/>
<path d="M0 0 C7.56634615 -0.37211538 7.56634615 -0.37211538 9.76171875 1.51171875 C10.17035156 2.00285156 10.57898438 2.49398438 11 3 C9.54077307 2.88590407 8.08259402 2.75834456 6.625 2.625 C5.40683594 2.52058594 5.40683594 2.52058594 4.1640625 2.4140625 C2 2 2 2 0 0 Z " fill="#C7AB5F" transform="translate(481,263)"/>
<path d="M0 0 C1.32 0.33 2.64 0.66 4 1 C1.69 2.65 -0.62 4.3 -3 6 C-3 5.01 -3 4.02 -3 3 C-3.66 2.67 -4.32 2.34 -5 2 C-3.35 2 -1.7 2 0 2 C0 1.34 0 0.68 0 0 Z " fill="#D5B65E" transform="translate(538,258)"/>
<path d="M0 0 C2.475 0.495 2.475 0.495 5 1 C5.33 2.32 5.66 3.64 6 5 C3 5 3 5 1.3125 3.625 C0 2 0 2 0 0 Z " fill="#D1B560" transform="translate(49,978)"/>
<path d="M0 0 C0.33 1.32 0.66 2.64 1 4 C0.34 4 -0.32 4 -1 4 C-1.33 4.66 -1.66 5.32 -2 6 C-2.66 5.67 -3.32 5.34 -4 5 C-4.33 5.66 -4.66 6.32 -5 7 C-4.60196439 4.11424181 -4.20990931 3.17810487 -1.9375 1.25 C-1.298125 0.8375 -0.65875 0.425 0 0 Z " fill="#E8C654" transform="translate(318,656)"/>
<path d="M0 0 C0.33 0.66 0.66 1.32 1 2 C1.66 2 2.32 2 3 2 C2.34 3.32 1.68 4.64 1 6 C-0.32 5.34 -1.64 4.68 -3 4 C-2.01 2.68 -1.02 1.36 0 0 Z " fill="#E9EBE9" transform="translate(797,534)"/>
<path d="M0 0 C0.99 0 1.98 0 3 0 C4.32 2.31 5.64 4.62 7 7 C6.01 7 5.02 7 4 7 C2.02 3.535 2.02 3.535 0 0 Z " fill="#8D7940" transform="translate(696,536)"/>
<path d="M0 0 C1.61949011 2.57213134 2.04408751 3.67669159 1.625 6.75 C1.41875 7.4925 1.2125 8.235 1 9 C-0.41377341 6.36095629 -1.37240135 3.92879371 -2 1 C-1.34 0.67 -0.68 0.34 0 0 Z " fill="#1F1F1E" transform="translate(643,396)"/>
<path d="M0 0 C0.66 0 1.32 0 2 0 C2.33 0.66 2.66 1.32 3 2 C3.99 2.33 4.98 2.66 6 3 C5.67 3.99 5.34 4.98 5 6 C1.535 4.02 1.535 4.02 -2 2 C-1.34 1.34 -0.68 0.68 0 0 Z " fill="#C3A960" transform="translate(517,273)"/>
<path d="M0 0 C0.99 0.33 1.98 0.66 3 1 C1.35 2.98 -0.3 4.96 -2 7 C-2.66 5.68 -3.32 4.36 -4 3 C-2.68 3 -1.36 3 0 3 C0 2.01 0 1.02 0 0 Z " fill="#E4C56E" transform="translate(530,264)"/>
<path d="M0 0 C0.99 0.33 1.98 0.66 3 1 C1.68 3.64 0.36 6.28 -1 9 C-1.33 9 -1.66 9 -2 9 C-2.20140476 5.37471432 -1.85776765 3.13498292 0 0 Z " fill="#CAB061" transform="translate(283,246)"/>
<path d="M0 0 C-0.8125 1.9375 -0.8125 1.9375 -2 4 C-2.99 4.33 -3.98 4.66 -5 5 C-5.99 4.34 -6.98 3.68 -8 3 C-2.25 0 -2.25 0 0 0 Z " fill="#D0B463" transform="translate(97,13)"/>
<path d="M0 0 C2.97 0 5.94 0 9 0 C8 2 8 2 5.625 2.8125 C4.325625 2.9053125 4.325625 2.9053125 3 3 C2.01 2.01 1.02 1.02 0 0 Z " fill="#8E783C" transform="translate(493,795)"/>
<path d="M0 0 C0.33 0 0.66 0 1 0 C1.25 2.3125 1.25 2.3125 1 5 C-1 6.8125 -1 6.8125 -3 8 C-3.33 7.01 -3.66 6.02 -4 5 C-3.34 5 -2.68 5 -2 5 C-1.34 3.35 -0.68 1.7 0 0 Z " fill="#D7BA62" transform="translate(659,767)"/>
<path d="M0 0 C0.66 0 1.32 0 2 0 C0.25 5.75 0.25 5.75 -2 8 C-2 6.02 -2 4.04 -2 2 C-1.34 2 -0.68 2 0 2 C0 1.34 0 0.68 0 0 Z " fill="#251907" transform="translate(742,702)"/>
<path d="M0 0 C0.598125 0.20625 1.19625 0.4125 1.8125 0.625 C-0.1675 1.945 -2.1475 3.265 -4.1875 4.625 C-4.5175 3.635 -4.8475 2.645 -5.1875 1.625 C-2.1875 -0.375 -2.1875 -0.375 0 0 Z " fill="#201908" transform="translate(309.1875,661.375)"/>
<path d="M0 0 C1.65 0 3.3 0 5 0 C4.67 1.32 4.34 2.64 4 4 C2.35 3.67 0.7 3.34 -1 3 C-0.67 2.01 -0.34 1.02 0 0 Z " fill="#D4D6D5" transform="translate(745,650)"/>
<path d="M0 0 C0.33 0.66 0.66 1.32 1 2 C1.66 2 2.32 2 3 2 C2.67 2.99 2.34 3.98 2 5 C1.34 5 0.68 5 0 5 C-0.33 5.99 -0.66 6.98 -1 8 C-2.2077558 4.37673261 -1.54311128 3.35853631 0 0 Z " fill="#D7BB65" transform="translate(811,588)"/>
<path d="M0 0 C0.99 0.66 1.98 1.32 3 2 C1.68 3.32 0.36 4.64 -1 6 C-1.66 5.67 -2.32 5.34 -3 5 C-2.625 3.0625 -2.625 3.0625 -2 1 C-1.34 0.67 -0.68 0.34 0 0 Z " fill="#F2F3F5" transform="translate(612,529)"/>
<path d="M0 0 C0.33 0 0.66 0 1 0 C1.33 2.64 1.66 5.28 2 8 C1.01 8 0.02 8 -1 8 C-2.2077558 4.37673261 -1.54311128 3.35853631 0 0 Z " fill="#322810" transform="translate(661,426)"/>
<path d="M0 0 C0 0.33 0 0.66 0 1 C-6.93 0.505 -6.93 0.505 -14 0 C-14 -0.33 -14 -0.66 -14 -1 C-8.51053913 -2.12029814 -5.16569441 -1.79217969 0 0 Z " fill="#EBCD75" transform="translate(473,261)"/>
<path d="M0 0 C1.65 1.65 3.3 3.3 5 5 C3.35 5.33 1.7 5.66 0 6 C-0.38218767 4.34385343 -0.71395102 2.67542976 -1 1 C-0.67 0.67 -0.34 0.34 0 0 Z " fill="#E5E6E5" transform="translate(337,246)"/>
</svg>
